<svg xmlns="http://www.w3.org/2000/svg" xmlns:xlink="http://www.w3.org/1999/xlink" width="1410" height="555" viewBox="0 0 1410 555">
  <defs>
    <clipPath id="clip-path">
      <rect id="Rectángulo_377901" data-name="Rectángulo 377901" width="1410" height="555" rx="20" transform="translate(1377 558) rotate(180)" fill="#ffe9df"/>
    </clipPath>
    <clipPath id="clip-path-2">
      <rect id="Rectángulo_401082" data-name="Rectángulo 401082" width="1559.596" height="790.16" fill="none"/>
    </clipPath>
    <clipPath id="clip-path-4">
      <rect id="Rectángulo_401073" data-name="Rectángulo 401073" width="124" height="55.844" fill="none"/>
    </clipPath>
  </defs>
  <g id="Grupo_1073347" data-name="Grupo 1073347" transform="translate(1377 558) rotate(180)">
    <g id="Grupo_1073825" data-name="Grupo 1073825" clip-path="url(#clip-path)">
      <rect id="Rectángulo_378306" data-name="Rectángulo 378306" width="1484.242" height="586.45" transform="translate(1454.115 562) rotate(180)" fill="none"/>
      <g id="Grupo_1099304" data-name="Grupo 1099304" transform="translate(1452.131 628) rotate(180)">
        <g id="Grupo_1099301" data-name="Grupo 1099301" clip-path="url(#clip-path-2)">
          <rect id="Rectángulo_401077" data-name="Rectángulo 401077" width="1445.926" height="646.427" transform="translate(37.126 34.196)" fill="#feebcf"/>
          <g id="Grupo_1099300" data-name="Grupo 1099300">
            <g id="Grupo_1099299" data-name="Grupo 1099299" clip-path="url(#clip-path-2)">
              <g id="Grupo_1099307" data-name="Grupo 1099307" transform="translate(31.92 27.823)">
                <path id="Trazado_873388" data-name="Trazado 873388" d="M424.36,10.075S225.337,14.617,253.4,177.919s205.4,25.517,243.677,119.925-56.955,256.12,119.742,313.493,0-601.262,0-601.262Z" transform="translate(881.03 1.907)" fill="#ffb937"/>
                <path id="Trazado_873389" data-name="Trazado 873389" d="M795.186,521.513c-41.679,0-65.888-66.016-65.888-104.682s8.178-71.357,8.178-115.368S720.5,193.634,637.51,193.634c-22.006,0-47.783,9.746-87.393,9.746s-79.22-26.721-73.875-95.88-34.894-84.56-71.362-84.56S243.826,117.979,153.709,6.435H795.186Z" transform="translate(675.61 26.767)" fill="#fecab2"/>
                <path id="Trazado_873390" data-name="Trazado 873390" d="M736.884,417.674c0-18.977,1.9-36.184,3.916-54.408,2.095-18.93,4.257-38.506,4.257-60.96,0-31-9.277-103.114-95.246-103.114-8.972,0-18.791,1.734-30.225,3.746-15.964,2.812-34.058,6-57.168,6-22.888,0-43.222-8.348-57.256-23.517-16.49-17.811-23.863-44.589-21.324-77.44C485.955,80.59,480.826,60,468.6,46.795c-11.238-12.14-28.532-18.3-51.415-18.3-7.786,0-21.629,5.454-37.66,11.769-27.831,10.964-65.944,25.973-105.59,25.973-44.027,0-81.573-18.838-111.591-56l-6.207-7.683H812.2v524.51h-4.716c-46.354,0-70.6-71.217-70.6-109.4M810.79,3.976H159.1l4.344,5.376c29.74,36.808,66.914,55.476,110.492,55.476,39.378,0,77.347-14.958,105.074-25.88,16.165-6.362,30.122-11.862,38.176-11.862,23.29,0,40.941,6.3,52.452,18.75,12.512,13.508,17.764,34.456,15.618,62.255-2.508,32.448,4.736,58.86,20.948,76.372,13.766,14.875,33.733,23.063,56.219,23.063,22.986,0,41.018-3.178,56.982-5.99,11.439-2.017,21.319-3.756,30.41-3.756,87.243,0,96.659,73.1,96.659,104.527,0,22.532-2.167,42.143-4.262,61.12C740.2,381.6,738.3,398.78,738.3,417.674c0,37.685,23.765,107.984,69.19,107.984h3.3Z" transform="translate(685.701 10.657)" fill="#fff"/>
                <path id="Trazado_873391" data-name="Trazado 873391" d="M739.483,415.112c0-18.956,1.894-36.158,3.916-54.408,2.09-18.91,4.251-38.47,4.251-60.965,0-31-9.277-103.109-95.245-103.109-8.988,0-18.827,1.739-30.235,3.746-15.964,2.812-34.058,6-57.158,6-22.883,0-43.216-8.353-57.25-23.517-16.49-17.811-23.863-44.589-21.33-77.445,2.121-27.387-3-47.974-15.236-61.187-11.238-12.135-28.537-18.291-51.415-18.291-7.786,0-21.624,5.448-37.66,11.769-27.836,10.964-65.944,25.973-105.6,25.973-44.021,0-81.567-18.838-111.586-56L158.734,0H814.8V524.51h-4.716c-46.354,0-70.6-71.223-70.6-109.4m73.906-413.7H161.7L166.04,6.79C195.774,43.6,232.949,62.266,276.527,62.266c39.383,0,77.352-14.958,105.1-25.885,16.155-6.362,30.106-11.857,38.16-11.857,23.285,0,40.936,6.3,52.452,18.745,12.512,13.513,17.764,34.461,15.613,62.26-2.508,32.448,4.736,58.855,20.948,76.372,13.766,14.875,33.738,23.063,56.219,23.063,22.975,0,41-3.173,56.925-5.98,11.454-2.017,21.35-3.767,30.467-3.767,87.243,0,96.664,73.1,96.664,104.522,0,22.573-2.172,42.169-4.272,61.156-2,18.172-3.906,35.338-3.906,54.217,0,37.685,23.77,107.984,69.19,107.984h3.307Z" transform="translate(696.512)" fill="#fff"/>
              </g>
              <path id="Trazado_873392" data-name="Trazado 873392" d="M431.9,531.642c0-32.173-43.508-71.559-73.35-71.559s-55.081,6.307-89.056,6.307-83.224-13.105-83.224-77.165c0-16.985,7.521-36.883,7.521-67.453s-20.627-61.151-74.009-57.024S54.51,237.815,54.51,209.667,91.636,106.06,5.536,36.5V531.642Z" transform="translate(-13.869 104.418)" fill="#fecab2"/>
              <path id="Trazado_873393" data-name="Trazado 873393" d="M2.129,39.1,7.837,43.7C79.4,101.521,67.829,163.012,60.917,199.754c-1.505,7.991-2.806,14.891-2.806,19.844,0,34.471,17.67,51.947,52.508,51.947,2.887,0,5.908-.124,8.989-.356,3.313-.259,6.588-.388,9.722-.388,22.2,0,40.25,6.572,52.2,19.013,10.235,10.645,15.868,25.52,15.868,41.89,0,17.816-2.46,31.773-4.635,44.118-1.548,8.795-2.887,16.391-2.887,23.335,0,66.482,55.751,73.658,79.722,73.658,17.368,0,32.469-1.667,47.145-3.291,14.039-1.554,27.3-3.016,41.906-3.016,14.983,0,34.25,9.458,50.28,24.678,16.639,15.8,26.578,34.633,26.578,50.388v3.507H2.129ZM434.683,541.574c0-15.533-9.841-34.147-26.319-49.794-15.889-15.08-34.941-24.452-49.718-24.452-14.562,0-27.8,1.462-41.89,3.016-14.622,1.619-29.745,3.291-47.161,3.291-24.22,0-80.542-7.257-80.542-74.478,0-7.014,1.343-14.643,2.9-23.508,2.169-12.28,4.618-26.2,4.618-43.945,0-16.154-5.552-30.829-15.636-41.323-11.794-12.275-29.637-18.76-51.607-18.76-3.113,0-6.367.129-9.658.383-3.1.237-6.145.361-9.053.361-35.383,0-53.323-17.751-53.323-52.767,0-5.029,1.3-11.967,2.816-20.006C66.992,163.039,78.506,101.85,7.319,44.34l-4.37-3.534V544.261H434.683Z" transform="translate(-28.844 115.842)" fill="#fff"/>
              <path id="Trazado_873394" data-name="Trazado 873394" d="M0,40.379l5.708,4.608C77.278,102.809,65.7,164.295,58.783,201.032c-1.5,7.991-2.8,14.9-2.8,19.85,0,34.471,17.664,51.947,52.508,51.947,2.87,0,5.892-.119,8.989-.356,3.318-.259,6.593-.388,9.722-.388,22.2,0,40.244,6.572,52.195,19.013,10.235,10.645,15.868,25.526,15.868,41.89,0,17.843-2.466,31.8-4.64,44.123-1.548,8.794-2.887,16.391-2.887,23.33,0,66.482,55.756,73.663,79.728,73.663,17.33,0,32.442-1.673,47.069-3.291,14.06-1.554,27.338-3.021,41.982-3.021,14.978,0,34.245,9.458,50.28,24.678,16.639,15.8,26.578,34.638,26.578,50.388v3.507H0ZM432.554,542.857c0-15.528-9.841-34.142-26.319-49.794-15.889-15.08-34.941-24.452-49.718-24.452-14.6,0-27.856,1.467-41.906,3.021-14.632,1.613-29.766,3.286-47.145,3.286-24.22,0-80.548-7.257-80.548-74.478,0-7.009,1.343-14.638,2.9-23.491,2.169-12.275,4.624-26.195,4.624-43.962,0-16.154-5.552-30.829-15.636-41.323-11.794-12.275-29.637-18.76-51.607-18.76-3.108,0-6.361.13-9.658.383-3.119.237-6.162.361-9.053.361-35.383,0-53.328-17.751-53.328-52.767,0-5.034,1.306-11.972,2.816-20,6.885-36.559,18.4-97.743-52.788-155.258L.82,42.089.815,545.544H432.554Z" transform="translate(-38.202 121.481)" fill="#fff"/>
            </g>
          </g>
        </g>
      </g>
    </g>
    <g id="Grupo_1099333" data-name="Grupo 1099333" transform="translate(1292.333 520.845) rotate(180)">
      <g id="Grupo_1099282" data-name="Grupo 1099282">
        <g id="Grupo_1099281" data-name="Grupo 1099281" clip-path="url(#clip-path-4)">
          <path id="Trazado_873375" data-name="Trazado 873375" d="M311.622,42.246c-5.565,0-8.444-2.729-10.985-5.137-2.494-2.361-4.641-4.4-9.133-4.4s-6.639,2.04-9.133,4.4c-2.541,2.408-5.416,5.137-10.985,5.137s-8.444-2.729-10.985-5.137c-2.494-2.361-4.641-4.4-9.133-4.4s-6.639,2.04-9.128,4.4c-2.541,2.408-5.42,5.137-10.985,5.137s-8.448-2.729-10.989-5.137c-2.49-2.361-4.637-4.4-9.128-4.4v-2.7c5.565,0,8.444,2.733,10.985,5.137,2.494,2.366,4.641,4.4,9.133,4.4s6.639-2.036,9.129-4.4c2.537-2.408,5.42-5.142,10.985-5.142s8.448,2.733,10.985,5.137c2.494,2.366,4.641,4.4,9.133,4.4s6.639-2.036,9.133-4.4c2.537-2.4,5.42-5.137,10.985-5.137s8.448,2.733,10.985,5.137c2.494,2.366,4.641,4.4,9.133,4.4s6.639-2.036,9.133-4.4c2.537-2.4,5.416-5.137,10.985-5.137v2.7c-4.492,0-6.639,2.04-9.133,4.4-2.541,2.408-5.42,5.137-10.985,5.137" transform="translate(-207.74 13.598)" fill="#fff"/>
          <path id="Trazado_873376" data-name="Trazado 873376" d="M311.365,38.848c-5.565,0-8.448-2.729-10.985-5.142-2.494-2.361-4.641-4.4-9.133-4.4s-6.639,2.036-9.133,4.4c-2.537,2.413-5.416,5.142-10.985,5.142s-8.448-2.729-10.985-5.142c-2.494-2.361-4.641-4.4-9.133-4.4s-6.639,2.04-9.128,4.4c-2.541,2.413-5.42,5.142-10.985,5.142s-8.448-2.729-10.989-5.142c-2.49-2.361-4.637-4.4-9.128-4.4v-2.7c5.565,0,8.448,2.729,10.985,5.137,2.494,2.366,4.641,4.4,9.133,4.4s6.639-2.036,9.128-4.4c2.537-2.408,5.42-5.137,10.985-5.137S259.46,29.339,262,31.747c2.49,2.366,4.637,4.4,9.128,4.4s6.639-2.036,9.133-4.4c2.537-2.408,5.42-5.137,10.985-5.137s8.448,2.729,10.985,5.137c2.494,2.366,4.641,4.4,9.133,4.4s6.639-2.036,9.133-4.4c2.541-2.408,5.42-5.137,10.989-5.137v2.7c-4.491,0-6.643,2.04-9.137,4.4-2.541,2.413-5.42,5.142-10.985,5.142" transform="translate(-208.582 2.461)" fill="#fff"/>
          <path id="Trazado_873377" data-name="Trazado 873377" d="M311.108,35.45c-5.565,0-8.448-2.729-10.985-5.142-2.494-2.361-4.641-4.4-9.133-4.4s-6.639,2.036-9.133,4.4c-2.537,2.413-5.42,5.142-10.985,5.142s-8.448-2.729-10.985-5.142c-2.494-2.361-4.641-4.4-9.133-4.4s-6.639,2.04-9.129,4.4c-2.541,2.413-5.42,5.142-10.985,5.142s-8.448-2.729-10.989-5.142c-2.49-2.361-4.637-4.4-9.128-4.4v-2.7c5.565,0,8.448,2.729,10.985,5.137,2.49,2.366,4.641,4.4,9.133,4.4s6.639-2.036,9.128-4.4c2.537-2.408,5.42-5.137,10.985-5.137s8.448,2.729,10.989,5.137c2.49,2.366,4.637,4.4,9.129,4.4s6.639-2.036,9.133-4.4c2.537-2.408,5.42-5.137,10.985-5.137s8.448,2.729,10.985,5.137c2.494,2.366,4.641,4.4,9.133,4.4s6.639-2.036,9.133-4.4c2.541-2.408,5.415-5.137,10.989-5.137v2.7c-4.492,0-6.643,2.04-9.137,4.4-2.541,2.413-5.42,5.142-10.985,5.142" transform="translate(-209.425 -8.677)" fill="#fff"/>
          <path id="Trazado_873378" data-name="Trazado 873378" d="M310.851,32.049c-5.565,0-8.444-2.729-10.985-5.137-2.494-2.361-4.641-4.4-9.133-4.4s-6.639,2.036-9.128,4.4c-2.541,2.408-5.42,5.137-10.989,5.137s-8.444-2.729-10.985-5.137c-2.494-2.361-4.641-4.4-9.133-4.4s-6.639,2.036-9.128,4.393c-2.537,2.413-5.42,5.142-10.985,5.142s-8.448-2.729-10.989-5.137c-2.49-2.361-4.637-4.4-9.129-4.4v-2.7c5.565,0,8.448,2.729,10.985,5.137,2.494,2.361,4.641,4.4,9.133,4.4s6.639-2.036,9.129-4.4c2.541-2.408,5.42-5.137,10.985-5.137s8.444,2.729,10.989,5.137c2.49,2.361,4.637,4.4,9.129,4.4s6.639-2.036,9.133-4.4c2.541-2.408,5.42-5.137,10.985-5.137s8.444,2.729,10.985,5.137c2.494,2.361,4.641,4.4,9.133,4.4s6.639-2.036,9.133-4.4c2.541-2.408,5.42-5.137,10.989-5.137v2.7c-4.5,0-6.643,2.036-9.137,4.4-2.541,2.408-5.42,5.137-10.985,5.137" transform="translate(-210.267 -19.811)" fill="#fff"/>
        </g>
      </g>
    </g>
  </g>
</svg>
