<svg xmlns="http://www.w3.org/2000/svg" xmlns:xlink="http://www.w3.org/1999/xlink" width="139" height="139" viewBox="0 0 139 139">
  <defs>
    <clipPath id="clip-path">
      <rect id="Rectángulo_400938" data-name="Rectángulo 400938" width="139" height="139" transform="translate(-0.043 -0.043)" fill="none"/>
    </clipPath>
    <clipPath id="clip-path-2">
      <rect id="Rectángulo_401073" data-name="Rectángulo 401073" width="105.872" height="47.68" fill="#7d3a1b"/>
    </clipPath>
    <clipPath id="clip-path-3">
      <rect id="Rectángulo_401796" data-name="Rectángulo 401796" width="94.544" height="94.983" fill="#6a4d23"/>
    </clipPath>
  </defs>
  <g id="Grupo_1100149" data-name="Grupo 1100149" transform="translate(-421 -3174.373)">
    <g id="Grupo_1100011" data-name="Grupo 1100011" transform="translate(156.043 -2109.584)">
      <g id="Grupo_1099379" data-name="Grupo 1099379" transform="translate(265 5284)">
        <rect id="Rectángulo_401103" data-name="Rectángulo 401103" width="139" height="139" transform="translate(-0.043 -0.043)" fill="none"/>
        <g id="Grupo_1099348" data-name="Grupo 1099348" transform="translate(0)">
          <g id="Grupo_1099282" data-name="Grupo 1099282">
            <g id="Grupo_1099281" data-name="Grupo 1099281" clip-path="url(#clip-path-2)">
              <path id="Trazado_873375" data-name="Trazado 873375" d="M85.879,10.449c-4.752,0-7.21-2.33-9.379-4.386C74.371,4.047,72.538,2.3,68.7,2.3s-5.668,1.742-7.8,3.758c-2.17,2.056-4.624,4.386-9.379,4.386s-7.21-2.33-9.379-4.386C40.018,4.047,38.184,2.3,34.349,2.3s-5.668,1.742-7.794,3.758c-2.17,2.056-4.627,4.386-9.379,4.386S9.963,8.119,7.794,6.063C5.668,4.047,3.835,2.3,0,2.3V0C4.752,0,7.21,2.334,9.379,4.386c2.129,2.02,3.963,3.758,7.8,3.758s5.668-1.738,7.794-3.755C27.136,2.334,29.6,0,34.349,0s7.213,2.334,9.379,4.386c2.129,2.02,3.963,3.758,7.8,3.758s5.668-1.738,7.8-3.758C61.489,2.334,63.951,0,68.7,0s7.213,2.334,9.379,4.386c2.129,2.02,3.963,3.758,7.8,3.758s5.668-1.738,7.8-3.758C95.843,2.334,98.3,0,103.056,0V2.3c-3.835,0-5.668,1.742-7.8,3.758-2.169,2.056-4.627,4.386-9.379,4.386" transform="translate(2.816 37.231)" fill="#7d3a1b"/>
              <path id="Trazado_873376" data-name="Trazado 873376" d="M85.879,10.449c-4.752,0-7.213-2.33-9.379-4.39C74.371,4.043,72.538,2.3,68.7,2.3s-5.668,1.738-7.8,3.755c-2.166,2.06-4.624,4.39-9.379,4.39s-7.213-2.33-9.379-4.39C40.018,4.043,38.184,2.3,34.349,2.3s-5.668,1.742-7.794,3.755c-2.17,2.06-4.627,4.39-9.379,4.39s-7.213-2.33-9.383-4.39C5.668,4.043,3.835,2.3,0,2.3V0C4.752,0,7.213,2.33,9.379,4.386c2.129,2.02,3.963,3.758,7.8,3.758s5.668-1.738,7.794-3.758C27.136,2.33,29.6,0,34.349,0s7.213,2.33,9.383,4.386c2.126,2.02,3.959,3.758,7.794,3.758s5.668-1.738,7.8-3.758C61.489,2.33,63.951,0,68.7,0s7.213,2.33,9.379,4.386c2.129,2.02,3.963,3.758,7.8,3.758s5.668-1.738,7.8-3.758C95.846,2.33,98.3,0,103.059,0V2.3c-3.835,0-5.672,1.742-7.8,3.755-2.169,2.06-4.628,4.39-9.379,4.39" transform="translate(1.877 24.821)" fill="#7d3a1b"/>
              <path id="Trazado_873377" data-name="Trazado 873377" d="M85.879,10.449c-4.752,0-7.213-2.33-9.379-4.39C74.371,4.043,72.538,2.3,68.7,2.3s-5.668,1.738-7.8,3.755c-2.166,2.06-4.627,4.39-9.379,4.39s-7.213-2.33-9.379-4.39C40.018,4.043,38.184,2.3,34.349,2.3s-5.668,1.742-7.794,3.755c-2.169,2.06-4.627,4.39-9.379,4.39s-7.213-2.33-9.383-4.39C5.668,4.043,3.835,2.3,0,2.3V0C4.752,0,7.213,2.33,9.379,4.386c2.126,2.02,3.963,3.758,7.8,3.758s5.668-1.738,7.794-3.758C27.136,2.33,29.6,0,34.349,0s7.213,2.33,9.383,4.386c2.126,2.02,3.959,3.758,7.794,3.758s5.668-1.738,7.8-3.758C61.489,2.33,63.951,0,68.7,0s7.213,2.33,9.379,4.386c2.129,2.02,3.963,3.758,7.8,3.758s5.668-1.738,7.8-3.758C95.846,2.33,98.3,0,103.059,0V2.3c-3.835,0-5.672,1.742-7.8,3.755-2.169,2.06-4.627,4.39-9.379,4.39" transform="translate(0.939 12.41)" fill="#7d3a1b"/>
              <path id="Trazado_873378" data-name="Trazado 873378" d="M85.879,10.445c-4.752,0-7.21-2.33-9.379-4.386C74.371,4.043,72.538,2.3,68.7,2.3s-5.668,1.738-7.794,3.755c-2.169,2.056-4.627,4.386-9.383,4.386s-7.21-2.33-9.379-4.386C40.018,4.043,38.184,2.3,34.349,2.3s-5.668,1.738-7.794,3.751c-2.166,2.06-4.627,4.39-9.379,4.39S9.963,8.115,7.794,6.059C5.668,4.043,3.835,2.3,0,2.3V0C4.752,0,7.213,2.33,9.379,4.386c2.129,2.016,3.963,3.755,7.8,3.755S22.845,6.4,24.971,4.386C27.14,2.33,29.6,0,34.349,0s7.21,2.33,9.383,4.386c2.126,2.016,3.959,3.755,7.794,3.755s5.668-1.738,7.8-3.755C61.493,2.33,63.951,0,68.7,0s7.21,2.33,9.379,4.386c2.129,2.016,3.963,3.755,7.8,3.755s5.668-1.738,7.8-3.755C95.846,2.33,98.3,0,103.059,0V2.3c-3.839,0-5.672,1.738-7.8,3.755-2.169,2.056-4.627,4.386-9.379,4.386" transform="translate(0 0.004)" fill="#7d3a1b"/>
            </g>
          </g>
        </g>
        <path id="Trazado_873425" data-name="Trazado 873425" d="M57.977,0A57.977,57.977,0,1,1,0,57.977,57.977,57.977,0,0,1,57.977,0Z" transform="translate(17.221 20.665)" fill="#ffe2b7"/>
        <circle id="Elipse_11503" data-name="Elipse 11503" cx="60.5" cy="60.5" r="60.5" transform="translate(8.957 8.957)" fill="#fff"/>
      </g>
    </g>
    <g id="Grupo_1100131" data-name="Grupo 1100131" transform="translate(443.228 3196.382)">
      <g id="Grupo_1100130" data-name="Grupo 1100130" clip-path="url(#clip-path-3)">
        <path id="Trazado_873655" data-name="Trazado 873655" d="M32.455,34.05a38.009,38.009,0,0,1,.519-7.23,13.1,13.1,0,0,0-1.537-7.732,30.846,30.846,0,0,0-3.692-5.718c-.543-.7-1-.939-1.816-.4-1.15.765-2.38,1.408-3.559,2.131a1.875,1.875,0,1,1-2.031-3.11c1.111-.736,2.263-1.413,3.428-2.061a.96.96,0,0,0,.542-1.287C22.922,2.584,27.43-1.4,33.513.462A18.676,18.676,0,0,1,39.964,4.01a2.357,2.357,0,0,0,1.873.606A40.712,40.712,0,0,1,56.812,5.973,3.291,3.291,0,0,0,60.63,4.96,7.135,7.135,0,0,1,71.972,6.029,8.524,8.524,0,0,0,76.257,9,7.2,7.2,0,0,1,82,16.7c-.083.872.068,1.162.921,1.393A6.968,6.968,0,0,1,88.2,25.393c-.054.953.123,1.332,1.1,1.6A7.148,7.148,0,0,1,93.024,38.3a1.914,1.914,0,0,1-.383.45c-2.5,1.692-2.6,3.971-2.289,6.8C92.6,66.215,79.426,86.315,59.643,92.7a45.143,45.143,0,0,1-57.906-31C-1.877,48.685.2,36.34,7.484,24.921c.82-1.285,1.847-1.626,2.831-1.02.967.595,1.112,1.738.3,2.989a41.427,41.427,0,0,0-6.6,26.973,42.78,42.78,0,0,0,1.348,7.123c.31,1.169.574,1.1,1.329.343q9.258-9.31,18.561-18.576c.839-.839,1.673-1.685,2.525-2.51a5.026,5.026,0,0,1,3.569-1.592c1.11.017,1.163-.49,1.117-1.339-.059-1.085-.015-2.175-.015-3.263M36.1,35.437a1.374,1.374,0,0,1,0,.148c-.387,3.588.941,6.234,3.65,8.747,6.05,5.614,11.746,11.608,17.591,17.443.423.423.723,1.056,1.551.428A38.789,38.789,0,0,1,65.6,58.44a27.185,27.185,0,0,0,7.764-5.605c4.684-4.826,9.491-9.532,14.246-14.289.8-.8,1.647-1.576,2.388-2.435a3.543,3.543,0,0,0,.227-4.153A3.5,3.5,0,0,0,86.32,30.55a3.912,3.912,0,0,0-1.4.8,1.786,1.786,0,0,1-2.755-.072c-.844-.964-.526-1.915.3-2.759a17.654,17.654,0,0,0,1.329-1.394,3.48,3.48,0,0,0-3.61-5.494,4.392,4.392,0,0,0-1.666.928,1.742,1.742,0,0,1-2.637-.138,1.786,1.786,0,0,1,.2-2.647c.448-.461.928-.894,1.343-1.383a3.587,3.587,0,0,0-.073-4.734,3.46,3.46,0,0,0-4.825-.206c-.565.478-1.045,1.056-1.611,1.532a1.726,1.726,0,0,1-2.532-.044,1.717,1.717,0,0,1-.178-2.417c.14-.2.322-.377.461-.581A3.491,3.491,0,0,0,66.314,6.4a3.714,3.714,0,0,0-3.286,1.348Q57.171,13.637,51.284,19.5c-1.6,1.6-3.379,1.451-4.728-.4a11.506,11.506,0,0,1-.938-1.678,31.814,31.814,0,0,0-7.9-10.448,14.078,14.078,0,0,0-5.845-3.088c-1.794-.422-3.192.039-3.836,1.156-.692,1.2-.389,2.666.873,4.026A36.528,36.528,0,0,1,33.553,15.2c2.336,3.915,3.777,8.081,3.03,12.705a42.663,42.663,0,0,0-.484,7.532m11,43.544c-.3-.332-.545-.631-.818-.9Q33.964,65.762,21.662,53.435c-.719-.723-1.11-.748-1.838-.006Q13.958,59.406,7.981,65.274a1.411,1.411,0,0,0-.343,1.913C13.352,78.85,22.382,86.514,34.949,89.96a1.47,1.47,0,0,0,1.681-.4c3.225-3.274,6.489-6.51,9.736-9.762.237-.237.448-.5.728-.815M86.651,45.159a2.767,2.767,0,0,0-1.421,1.058c-3.157,3.132-6.349,6.232-9.425,9.443a28.7,28.7,0,0,1-8.37,6.014,49.372,49.372,0,0,0-5.858,3.167c-.473.313-.975.524-.741,1.369.7,2.524-.121,4.581-1.985,6.414C53.109,78.272,47.441,84,41.75,89.695a2.618,2.618,0,0,0-.98,1.384c14.113,1.078,26.051-3.2,35.492-13.649,8.248-9.131,11.511-19.98,10.39-32.271M31.632,42.37a2.111,2.111,0,0,0-1.568.858c-1.955,1.956-3.888,3.936-5.88,5.854-.638.614-.7.975-.033,1.644Q36.655,63.161,49.1,75.659c.508.51.825.632,1.393.043,1.988-2.062,4.05-4.053,6.052-6.1,1.208-1.236,1.225-2.089.009-3.309Q45,54.692,33.407,43.124a2.126,2.126,0,0,0-1.775-.754M44.167,8.257a42.962,42.962,0,0,1,4.917,7.687l6.486-6.467a37.32,37.32,0,0,0-11.4-1.219" transform="translate(0 0)" fill="#6a4d23"/>
        <path id="Trazado_873656" data-name="Trazado 873656" d="M45,57.88a1.821,1.821,0,0,1,1.923,1.955,1.678,1.678,0,0,1-1.843,1.695A1.829,1.829,0,0,1,45,57.88" transform="translate(-30.465 -40.7)" fill="#6a4d23"/>
        <path id="Trazado_873657" data-name="Trazado 873657" d="M103.733,162.951a1.781,1.781,0,0,1-1.988,1.722,1.654,1.654,0,0,1-1.63-1.9,1.7,1.7,0,0,1,1.81-1.741,1.8,1.8,0,0,1,1.808,1.916" transform="translate(-70.396 -113.236)" fill="#6a4d23"/>
      </g>
    </g>
  </g>
</svg>
