<svg xmlns="http://www.w3.org/2000/svg" xmlns:xlink="http://www.w3.org/1999/xlink" width="139" height="139" viewBox="0 0 139 139">
  <defs>
    <clipPath id="clip-path">
      <rect id="Rectángulo_400938" data-name="Rectángulo 400938" width="139" height="139" transform="translate(-0.043 -0.043)" fill="none"/>
    </clipPath>
    <clipPath id="clip-path-2">
      <rect id="Rectángulo_401073" data-name="Rectángulo 401073" width="105.872" height="47.68" fill="#7d3a1b"/>
    </clipPath>
    <clipPath id="clip-path-3">
      <rect id="Rectángulo_401797" data-name="Rectángulo 401797" width="93.053" height="95.527" fill="#6a4d23"/>
    </clipPath>
  </defs>
  <g id="Grupo_1100150" data-name="Grupo 1100150" transform="translate(-1041 -3174.373)">
    <g id="Grupo_1100012" data-name="Grupo 1100012" transform="translate(776.043 -2109.584)">
      <g id="Grupo_1099379" data-name="Grupo 1099379" transform="translate(265 5284)">
        <rect id="Rectángulo_401103" data-name="Rectángulo 401103" width="139" height="139" transform="translate(-0.043 -0.043)" fill="none"/>
        <g id="Grupo_1099348" data-name="Grupo 1099348" transform="translate(0)">
          <g id="Grupo_1099282" data-name="Grupo 1099282">
            <g id="Grupo_1099281" data-name="Grupo 1099281" clip-path="url(#clip-path-2)">
              <path id="Trazado_873375" data-name="Trazado 873375" d="M85.879,10.449c-4.752,0-7.21-2.33-9.379-4.386C74.371,4.047,72.538,2.3,68.7,2.3s-5.668,1.742-7.8,3.758c-2.17,2.056-4.624,4.386-9.379,4.386s-7.21-2.33-9.379-4.386C40.018,4.047,38.184,2.3,34.349,2.3s-5.668,1.742-7.794,3.758c-2.17,2.056-4.627,4.386-9.379,4.386S9.963,8.119,7.794,6.063C5.668,4.047,3.835,2.3,0,2.3V0C4.752,0,7.21,2.334,9.379,4.386c2.129,2.02,3.963,3.758,7.8,3.758s5.668-1.738,7.794-3.755C27.136,2.334,29.6,0,34.349,0s7.213,2.334,9.379,4.386c2.129,2.02,3.963,3.758,7.8,3.758s5.668-1.738,7.8-3.758C61.489,2.334,63.951,0,68.7,0s7.213,2.334,9.379,4.386c2.129,2.02,3.963,3.758,7.8,3.758s5.668-1.738,7.8-3.758C95.843,2.334,98.3,0,103.056,0V2.3c-3.835,0-5.668,1.742-7.8,3.758-2.169,2.056-4.627,4.386-9.379,4.386" transform="translate(2.816 37.231)" fill="#7d3a1b"/>
              <path id="Trazado_873376" data-name="Trazado 873376" d="M85.879,10.449c-4.752,0-7.213-2.33-9.379-4.39C74.371,4.043,72.538,2.3,68.7,2.3s-5.668,1.738-7.8,3.755c-2.166,2.06-4.624,4.39-9.379,4.39s-7.213-2.33-9.379-4.39C40.018,4.043,38.184,2.3,34.349,2.3s-5.668,1.742-7.794,3.755c-2.17,2.06-4.627,4.39-9.379,4.39s-7.213-2.33-9.383-4.39C5.668,4.043,3.835,2.3,0,2.3V0C4.752,0,7.213,2.33,9.379,4.386c2.129,2.02,3.963,3.758,7.8,3.758s5.668-1.738,7.794-3.758C27.136,2.33,29.6,0,34.349,0s7.213,2.33,9.383,4.386c2.126,2.02,3.959,3.758,7.794,3.758s5.668-1.738,7.8-3.758C61.489,2.33,63.951,0,68.7,0s7.213,2.33,9.379,4.386c2.129,2.02,3.963,3.758,7.8,3.758s5.668-1.738,7.8-3.758C95.846,2.33,98.3,0,103.059,0V2.3c-3.835,0-5.672,1.742-7.8,3.755-2.169,2.06-4.628,4.39-9.379,4.39" transform="translate(1.877 24.821)" fill="#7d3a1b"/>
              <path id="Trazado_873377" data-name="Trazado 873377" d="M85.879,10.449c-4.752,0-7.213-2.33-9.379-4.39C74.371,4.043,72.538,2.3,68.7,2.3s-5.668,1.738-7.8,3.755c-2.166,2.06-4.627,4.39-9.379,4.39s-7.213-2.33-9.379-4.39C40.018,4.043,38.184,2.3,34.349,2.3s-5.668,1.742-7.794,3.755c-2.169,2.06-4.627,4.39-9.379,4.39s-7.213-2.33-9.383-4.39C5.668,4.043,3.835,2.3,0,2.3V0C4.752,0,7.213,2.33,9.379,4.386c2.126,2.02,3.963,3.758,7.8,3.758s5.668-1.738,7.794-3.758C27.136,2.33,29.6,0,34.349,0s7.213,2.33,9.383,4.386c2.126,2.02,3.959,3.758,7.794,3.758s5.668-1.738,7.8-3.758C61.489,2.33,63.951,0,68.7,0s7.213,2.33,9.379,4.386c2.129,2.02,3.963,3.758,7.8,3.758s5.668-1.738,7.8-3.758C95.846,2.33,98.3,0,103.059,0V2.3c-3.835,0-5.672,1.742-7.8,3.755-2.169,2.06-4.627,4.39-9.379,4.39" transform="translate(0.939 12.41)" fill="#7d3a1b"/>
              <path id="Trazado_873378" data-name="Trazado 873378" d="M85.879,10.445c-4.752,0-7.21-2.33-9.379-4.386C74.371,4.043,72.538,2.3,68.7,2.3s-5.668,1.738-7.794,3.755c-2.169,2.056-4.627,4.386-9.383,4.386s-7.21-2.33-9.379-4.386C40.018,4.043,38.184,2.3,34.349,2.3s-5.668,1.738-7.794,3.751c-2.166,2.06-4.627,4.39-9.379,4.39S9.963,8.115,7.794,6.059C5.668,4.043,3.835,2.3,0,2.3V0C4.752,0,7.213,2.33,9.379,4.386c2.129,2.016,3.963,3.755,7.8,3.755S22.845,6.4,24.971,4.386C27.14,2.33,29.6,0,34.349,0s7.21,2.33,9.383,4.386c2.126,2.016,3.959,3.755,7.794,3.755s5.668-1.738,7.8-3.755C61.493,2.33,63.951,0,68.7,0s7.21,2.33,9.379,4.386c2.129,2.016,3.963,3.755,7.8,3.755s5.668-1.738,7.8-3.755C95.846,2.33,98.3,0,103.059,0V2.3c-3.839,0-5.672,1.738-7.8,3.755-2.169,2.056-4.627,4.386-9.379,4.386" transform="translate(0 0.004)" fill="#7d3a1b"/>
            </g>
          </g>
        </g>
        <path id="Trazado_873425" data-name="Trazado 873425" d="M57.977,0A57.977,57.977,0,1,1,0,57.977,57.977,57.977,0,0,1,57.977,0Z" transform="translate(17.221 20.665)" fill="#efb499"/>
        <circle id="Elipse_11503" data-name="Elipse 11503" cx="60.5" cy="60.5" r="60.5" transform="translate(8.957 8.957)" fill="#fff"/>
      </g>
    </g>
    <g id="Grupo_1100133" data-name="Grupo 1100133" transform="translate(1063.973 3196.109)">
      <g id="Grupo_1100132" data-name="Grupo 1100132" clip-path="url(#clip-path-3)">
        <path id="Trazado_873658" data-name="Trazado 873658" d="M90.023,40.632c-4.795,3.174-9.3,6.156-13.808,9.141-3.355,2.222-6.735,4.407-10.052,6.685-1.931,1.326-3.8,1.637-5.942,0-.645,2.753-1.268,5.367-1.867,7.987q-.945,4.134-1.849,8.278a17.8,17.8,0,0,0,.367,8.254c.245.965.637,1.214,1.666.977,12.317-2.833,21.385-9.858,27.3-21,.07-.132.127-.27.195-.4.447-.882.961-1.765,2.145-1.231,1.237.558,1.016,1.54.526,2.519a43.069,43.069,0,0,1-4.126,6.722A42.553,42.553,0,0,1,59.746,84.7c-1.025.244-1.052.442-.574,1.286,1.742,3.077,1.159,6.288-1.415,8.265-2.506,1.924-5.74,1.651-8.257-.718a40.924,40.924,0,0,1-7.009-7.893,1.821,1.821,0,0,0-1.3-.865,38.032,38.032,0,0,1-8.6-2.832,1.659,1.659,0,0,0-1.886.15c-2,1.389-4.039,2.717-6.074,4.052a6.986,6.986,0,0,1-8.22,0,6.751,6.751,0,0,1-2.332-7.718c.25-.826-.024-.981-.651-1.273-3.6-1.673-5.034-4.776-3.908-8.576.229-.772.118-.95-.6-1.255a6.641,6.641,0,0,1-3.951-8.538c.254-.84.04-1.045-.693-1.344a6.488,6.488,0,0,1-4.247-5.81,6.56,6.56,0,0,1,2.988-6.136c1.381-.97,3.265-1.616,4.052-2.929s.424-3.266.644-4.929A42.827,42.827,0,0,1,39.407,1.43C61.765-4.6,85.435,9.041,91.523,31.368a44.3,44.3,0,0,1,.365,21.657c-.489,2.195-1.1,2.907-2.228,2.482-1.673-.63-.936-1.93-.671-3.033a40.239,40.239,0,0,0,1.033-11.842M10.49,40.476c1.229-.789,2.247-1.474,3.3-2.1a1.387,1.387,0,0,1,1.783.178,1.407,1.407,0,0,1,.364,1.509c-.158.57-.66.843-1.116,1.145-3.354,2.222-6.731,4.409-10.049,6.683a3.785,3.785,0,0,0-1.106,5.48,3.913,3.913,0,0,0,5.422.935c.887-.546,1.736-1.154,2.609-1.724.847-.554,1.722-.7,2.343.253s.112,1.678-.733,2.234c-1.368.9-2.76,1.772-4.085,2.734A3.859,3.859,0,0,0,13.5,64.22c.94-.554,1.832-1.191,2.743-1.793.846-.56,1.722-.722,2.346.224s.15,1.686-.708,2.249c-1.37.9-2.759,1.773-4.091,2.726a3.859,3.859,0,0,0,4.247,6.444c.94-.555,1.832-1.191,2.747-1.788.838-.546,1.719-.735,2.351.206s.174,1.678-.694,2.244c-1.372.9-2.755,1.779-4.089,2.729A3.839,3.839,0,0,0,17,82.332c1.056,2.235,3.664,2.855,5.965,1.346,4.9-3.213,9.775-6.468,14.665-9.7,1.779-1.175,2.54-.984,3.182,1.038A34.94,34.94,0,0,0,51.5,91.382c1.56,1.335,3.2,1.545,4.56.432a3.239,3.239,0,0,0,.506-4.434,21.5,21.5,0,0,1-2.61-17.161c1.282-5.252,2.445-10.532,3.685-15.795a2.9,2.9,0,0,0-.411-2.505q-7.418-11.082-14.72-22.24c-.671-1.027-1.163-1.043-2.061-.366a9.327,9.327,0,0,1-7.277,1.951,6.8,6.8,0,0,0-4.963,1.09q-3.555,2.322-7.081,4.688c-.868.581-1.747.916-2.465-.118s-.109-1.74.773-2.319c2.448-1.609,4.872-3.257,7.337-4.84a9.029,9.029,0,0,1,6.535-1.435,7.865,7.865,0,0,0,6.1-1.831c.443-.323.454-.616.287-1.129-.853-2.624-.392-3.906,1.9-5.433q7.32-4.867,14.655-9.713C58.634,8.644,61.01,7.058,63.5,5.4,39.825-3.441,12.248,13.174,10.49,40.476m79.187-3.623c-.045-.27-.066-.418-.1-.564C86.937,23.012,79.393,13.518,67.361,7.474a1.68,1.68,0,0,0-1.911.191c-3.5,2.356-7,4.711-10.554,6.978-.9.573-.819.962-.3,1.721,2.6,3.812,5.15,7.659,7.722,11.49q6.057,9.023,12.12,18.041c.335.5.495,1.217,1.408.6,4.4-2.967,8.837-5.886,13.264-8.818.348-.231.654-.464.568-.825M72.445,48.3c-.159-.244-.345-.535-.537-.823q-3.436-5.132-6.873-10.263-6.424-9.58-12.861-19.151c-.314-.466-.475-1.312-1.408-.68-2.587,1.752-5.2,3.468-7.807,5.192a1.176,1.176,0,0,0-.393,1.879c.726,1.066,1.42,2.153,2.133,3.229q8.545,12.9,17.086,25.813c.575.871,1.125,1.547,2.255.791,2.639-1.765,5.289-3.512,7.936-5.264.243-.161.541-.277.468-.722M40.107,81.437c-.532-1.4-.99-2.536-1.4-3.694-.169-.48-.372-.681-.841-.37-1.052.7-2.1,1.4-3.286,2.189a25.549,25.549,0,0,0,5.524,1.874" transform="translate(0 -0.001)" fill="#6a4d23"/>
      </g>
    </g>
  </g>
</svg>
