<svg xmlns="http://www.w3.org/2000/svg" xmlns:xlink="http://www.w3.org/1999/xlink" width="1030" height="477.553" viewBox="0 0 1030 477.553">
  <defs>
    <clipPath id="clip-path">
      <path id="Trazado_611005" data-name="Trazado 611005" d="M0,0H1030V476.553H0Z" transform="translate(0 0)" fill="#fef7eb"/>
    </clipPath>
    <clipPath id="clip-path-2">
      <rect id="Rectángulo_401687" data-name="Rectángulo 401687" width="860.813" height="437.377" fill="none"/>
    </clipPath>
    <clipPath id="clip-path-3">
      <rect id="Rectángulo_401692" data-name="Rectángulo 401692" width="74.149" height="74.17" fill="#6a4d23"/>
    </clipPath>
    <clipPath id="clip-path-4">
      <rect id="Rectángulo_401693" data-name="Rectángulo 401693" width="88" height="87.926" fill="#6a4d23"/>
    </clipPath>
    <clipPath id="clip-path-5">
      <rect id="Rectángulo_401694" data-name="Rectángulo 401694" width="61.111" height="73.353" fill="#6a4d23" stroke="#6a4d23" stroke-width="1"/>
    </clipPath>
    <clipPath id="clip-path-6">
      <rect id="Rectángulo_401695" data-name="Rectángulo 401695" width="74.121" height="77.56" fill="#6a4d23"/>
    </clipPath>
  </defs>
  <g id="Grupo_1100168" data-name="Grupo 1100168" transform="translate(-285 -1113.039)">
    <g id="Grupo_1100054" data-name="Grupo 1100054" transform="translate(0 666.539)">
      <path id="Trazado_608309" data-name="Trazado 608309" d="M0,0H1030V476.553H0Z" transform="translate(285 446.5)" fill="#fef7eb"/>
    </g>
    <g id="Grupo_1100050" data-name="Grupo 1100050" transform="translate(369.594 1132.012)">
      <g id="Grupo_1100049" data-name="Grupo 1100049" clip-path="url(#clip-path-2)">
        <path id="Trazado_873599" data-name="Trazado 873599" d="M517.627,399.164,392.365,273.9a14.078,14.078,0,0,1,0-19.909L517.627,128.734a14.078,14.078,0,0,1,19.909,0L571.8,163.005a23.933,23.933,0,0,0,33.847,0c4.294-4.293,13.56-11.618,10.993-25.915a44.414,44.414,0,0,1,40.726-52.2,44.4,44.4,0,0,1,8.013,88.412,44.914,44.914,0,0,1-10.77-.087c-13.685-1.778-20.429,7-26.087,12.659a23.935,23.935,0,0,0,0,33.847L662.8,254a14.076,14.076,0,0,1,0,19.909l-125.26,125.26a14.075,14.075,0,0,1-19.909,0" transform="translate(156.078 34.09)" fill="#fecab2"/>
        <path id="Trazado_873600" data-name="Trazado 873600" d="M543.715,156.791l-106.4,106.4A56.043,56.043,0,0,0,439,344.122a45.051,45.051,0,1,1-60.362-.576c11.379-10.078,18.3-24.244,18.3-39.443,0-14.938-4.252-27.913-15.131-38.792L273.285,156.791a14.08,14.08,0,0,1,0-19.91L398.547,11.621a14.078,14.078,0,0,1,19.909,0l125.26,125.26a14.077,14.077,0,0,1,0,19.91" transform="translate(108.207 3.014)" fill="#ffe2b7"/>
        <path id="Trazado_873601" data-name="Trazado 873601" d="M421.935,281.384l-106.4-106.4a56.044,56.044,0,0,1,1.685-80.928,45.052,45.052,0,1,0-60.361.576c11.955,10.589,18.3,24.218,18.3,41.708a51.655,51.655,0,0,1-15.131,36.527l-108.52,108.52a14.075,14.075,0,0,0,0,19.909l125.26,125.26a14.075,14.075,0,0,0,19.909,0l125.261-125.26a14.078,14.078,0,0,0,0-19.909" transform="translate(59.249 6.369)" fill="#fecab2"/>
        <path id="Trazado_873602" data-name="Trazado 873602" d="M314.366,129.382,189.106,4.122a14.078,14.078,0,0,0-19.909,0L43.938,129.382a14.077,14.077,0,0,0,0,19.91l34.269,34.271a23.931,23.931,0,0,1,0,33.846C73.914,221.7,66.589,230.971,52.292,228.4A44.415,44.415,0,0,0,.1,269.128a44.4,44.4,0,0,0,88.412,8.013,44.841,44.841,0,0,0-.087-10.77c-1.775-13.682,6.99-20.42,12.659-26.087a23.931,23.931,0,0,1,33.846,0L169.2,274.552a14.076,14.076,0,0,0,19.909,0l125.26-125.26a14.077,14.077,0,0,0,0-19.91" transform="translate(0 0)" fill="#ffe2b7"/>
      </g>
    </g>
    <path id="Trazado_873769" data-name="Trazado 873769" d="M19.781,15V3.625h3.5a5.315,5.315,0,0,1,2.684.676,4.712,4.712,0,0,1,1.848,1.922,5.928,5.928,0,0,1,.664,2.832v.523a5.945,5.945,0,0,1-.652,2.82,4.672,4.672,0,0,1-1.84,1.914A5.355,5.355,0,0,1,23.3,15Zm2.344-9.477v7.594h1.133a2.545,2.545,0,0,0,2.1-.9,4.06,4.06,0,0,0,.742-2.57v-.6a4.124,4.124,0,0,0-.719-2.629,2.537,2.537,0,0,0-2.1-.895Zm11.8,9.633a4.15,4.15,0,0,1-3.027-1.141,4.054,4.054,0,0,1-1.168-3.039v-.219a5.106,5.106,0,0,1,.492-2.277,3.612,3.612,0,0,1,1.395-1.547,3.914,3.914,0,0,1,2.059-.543A3.508,3.508,0,0,1,36.4,7.484a4.444,4.444,0,0,1,1,3.1v.922H32.016a2.1,2.1,0,0,0,.66,1.328,2,2,0,0,0,1.395.5,2.437,2.437,0,0,0,2.039-.945l1.109,1.242a3.389,3.389,0,0,1-1.375,1.121A4.511,4.511,0,0,1,33.922,15.156Zm-.258-6.945a1.411,1.411,0,0,0-1.09.455,2.357,2.357,0,0,0-.535,1.3H35.18V9.788a1.681,1.681,0,0,0-.406-1.165A1.456,1.456,0,0,0,33.664,8.211Zm9.594,4.453a.727.727,0,0,0-.41-.652,4.659,4.659,0,0,0-1.316-.426q-3.016-.633-3.016-2.562a2.323,2.323,0,0,1,.934-1.879,3.766,3.766,0,0,1,2.441-.754,4.053,4.053,0,0,1,2.574.758,2.388,2.388,0,0,1,.965,1.969H43.172a1.092,1.092,0,0,0-.312-.8A1.322,1.322,0,0,0,41.883,8,1.351,1.351,0,0,0,41,8.258a.814.814,0,0,0-.312.656.7.7,0,0,0,.355.605,3.657,3.657,0,0,0,1.2.4,9.8,9.8,0,0,1,1.422.379,2.336,2.336,0,0,1,1.789,2.273,2.2,2.2,0,0,1-.992,1.871,4.28,4.28,0,0,1-2.562.715,4.47,4.47,0,0,1-1.887-.379,3.166,3.166,0,0,1-1.293-1.039,2.414,2.414,0,0,1-.469-1.426h2.141a1.179,1.179,0,0,0,.445.922,1.766,1.766,0,0,0,1.109.32,1.635,1.635,0,0,0,.98-.246A.766.766,0,0,0,43.258,12.664ZM51.8,15a2.507,2.507,0,0,1-.227-.758,2.732,2.732,0,0,1-2.133.914,3,3,0,0,1-2.059-.719,2.312,2.312,0,0,1-.816-1.812,2.389,2.389,0,0,1,1-2.062,4.915,4.915,0,0,1,2.879-.727h1.039V9.352a1.393,1.393,0,0,0-.3-.937,1.183,1.183,0,0,0-.949-.352,1.345,1.345,0,0,0-.895.273.929.929,0,0,0-.324.75H46.758a2.268,2.268,0,0,1,.453-1.359,3,3,0,0,1,1.281-.98,4.669,4.669,0,0,1,1.859-.355,3.689,3.689,0,0,1,2.48.785,2.747,2.747,0,0,1,.918,2.207v3.664a4.041,4.041,0,0,0,.336,1.82V15Zm-1.867-1.57a1.945,1.945,0,0,0,.922-.223,1.462,1.462,0,0,0,.625-.6V11.156h-.844q-1.7,0-1.8,1.172l-.008.133a.9.9,0,0,0,.3.7A1.153,1.153,0,0,0,49.938,13.43Zm10.3-4.766a6.134,6.134,0,0,0-.812-.062,1.654,1.654,0,0,0-1.68.867V15H55.484V6.547h2.133l.063,1.008a2.092,2.092,0,0,1,1.883-1.164,2.366,2.366,0,0,1,.7.1Zm5.836,0a6.134,6.134,0,0,0-.812-.062,1.654,1.654,0,0,0-1.68.867V15H61.32V6.547h2.133l.063,1.008A2.092,2.092,0,0,1,65.4,6.391a2.366,2.366,0,0,1,.7.1Zm.453,2.031a5.013,5.013,0,0,1,.484-2.242A3.546,3.546,0,0,1,68.4,6.93a4.069,4.069,0,0,1,2.113-.539,3.849,3.849,0,0,1,2.793,1.047,4.2,4.2,0,0,1,1.207,2.844l.016.578a4.418,4.418,0,0,1-1.086,3.121,4.209,4.209,0,0,1-5.832,0,4.5,4.5,0,0,1-1.09-3.187Zm2.258.16a3.16,3.16,0,0,0,.453,1.843,1.628,1.628,0,0,0,2.578.008,3.457,3.457,0,0,0,.461-2.015,3.128,3.128,0,0,0-.461-1.831,1.5,1.5,0,0,0-1.3-.649,1.474,1.474,0,0,0-1.281.646A3.516,3.516,0,0,0,68.781,10.856ZM78.3,15H76.039V3H78.3Zm4.242,0H80.281V3h2.266Zm1.508-4.3a5.013,5.013,0,0,1,.484-2.242A3.546,3.546,0,0,1,85.934,6.93a4.069,4.069,0,0,1,2.113-.539A3.849,3.849,0,0,1,90.84,7.438a4.2,4.2,0,0,1,1.207,2.844l.016.578a4.418,4.418,0,0,1-1.086,3.121,4.209,4.209,0,0,1-5.832,0,4.5,4.5,0,0,1-1.09-3.187Zm2.258.16a3.16,3.16,0,0,0,.453,1.843,1.628,1.628,0,0,0,2.578.008,3.457,3.457,0,0,0,.461-2.015,3.128,3.128,0,0,0-.461-1.831,1.5,1.5,0,0,0-1.3-.649,1.474,1.474,0,0,0-1.281.646A3.516,3.516,0,0,0,86.313,10.856Zm10.773-.145a5.094,5.094,0,0,1,.887-3.148A2.877,2.877,0,0,1,100.4,6.391a2.589,2.589,0,0,1,2.039.922V3H104.7V15h-2.039l-.109-.9a2.657,2.657,0,0,1-2.172,1.055,2.869,2.869,0,0,1-2.395-1.176A5.258,5.258,0,0,1,97.086,10.711Zm2.258.168a3.337,3.337,0,0,0,.414,1.823,1.349,1.349,0,0,0,1.2.634,1.511,1.511,0,0,0,1.477-.884V9.111a1.489,1.489,0,0,0-1.461-.884Q99.344,8.227,99.344,10.879Zm11,4.277a4.15,4.15,0,0,1-3.027-1.141,4.054,4.054,0,0,1-1.168-3.039v-.219a5.106,5.106,0,0,1,.492-2.277,3.612,3.612,0,0,1,1.395-1.547,3.914,3.914,0,0,1,2.059-.543,3.508,3.508,0,0,1,2.73,1.094,4.444,4.444,0,0,1,1,3.1v.922h-5.383a2.1,2.1,0,0,0,.66,1.328,2,2,0,0,0,1.395.5,2.437,2.437,0,0,0,2.039-.945l1.109,1.242a3.389,3.389,0,0,1-1.375,1.121A4.511,4.511,0,0,1,110.344,15.156Zm-.258-6.945a1.411,1.411,0,0,0-1.09.455,2.357,2.357,0,0,0-.535,1.3H111.6V9.788a1.681,1.681,0,0,0-.406-1.165A1.456,1.456,0,0,0,110.086,8.211ZM30.91,39.156a4.15,4.15,0,0,1-3.027-1.141,4.054,4.054,0,0,1-1.168-3.039v-.219a5.106,5.106,0,0,1,.492-2.277A3.612,3.612,0,0,1,28.6,30.934a3.914,3.914,0,0,1,2.059-.543,3.508,3.508,0,0,1,2.73,1.094,4.444,4.444,0,0,1,1,3.1v.922H29a2.1,2.1,0,0,0,.66,1.328,2,2,0,0,0,1.395.5,2.437,2.437,0,0,0,2.039-.945l1.109,1.242a3.389,3.389,0,0,1-1.375,1.121A4.511,4.511,0,0,1,30.91,39.156Zm-.258-6.945a1.411,1.411,0,0,0-1.09.455,2.357,2.357,0,0,0-.535,1.3h3.141v-.181a1.681,1.681,0,0,0-.406-1.165A1.456,1.456,0,0,0,30.652,32.211Zm9.594,4.453a.727.727,0,0,0-.41-.652,4.659,4.659,0,0,0-1.316-.426Q35.5,34.953,35.5,33.023a2.323,2.323,0,0,1,.934-1.879,3.766,3.766,0,0,1,2.441-.754,4.053,4.053,0,0,1,2.574.758,2.388,2.388,0,0,1,.965,1.969H40.16a1.092,1.092,0,0,0-.312-.8A1.322,1.322,0,0,0,38.871,32a1.351,1.351,0,0,0-.883.258.814.814,0,0,0-.312.656.7.7,0,0,0,.355.605,3.657,3.657,0,0,0,1.2.4,9.8,9.8,0,0,1,1.422.379,2.336,2.336,0,0,1,1.789,2.273,2.205,2.205,0,0,1-.992,1.871,4.28,4.28,0,0,1-2.562.715A4.47,4.47,0,0,1,37,38.777a3.166,3.166,0,0,1-1.293-1.039,2.414,2.414,0,0,1-.469-1.426h2.141a1.179,1.179,0,0,0,.445.922,1.766,1.766,0,0,0,1.109.32,1.635,1.635,0,0,0,.98-.246A.766.766,0,0,0,40.246,36.664Zm6.352-8.2v2.078h1.445V32.2H46.6v4.219a1.007,1.007,0,0,0,.18.672.9.9,0,0,0,.688.2,3.6,3.6,0,0,0,.664-.055v1.711a4.648,4.648,0,0,1-1.367.2,2.156,2.156,0,0,1-2.422-2.4V32.2H43.105V30.547H44.34V28.469Zm7.453,4.2a6.134,6.134,0,0,0-.812-.062,1.654,1.654,0,0,0-1.68.867V39H49.3V30.547h2.133l.063,1.008a2.092,2.092,0,0,1,1.883-1.164,2.366,2.366,0,0,1,.7.1ZM59.8,39a2.507,2.507,0,0,1-.227-.758,2.732,2.732,0,0,1-2.133.914,3,3,0,0,1-2.059-.719,2.312,2.312,0,0,1-.816-1.812,2.389,2.389,0,0,1,1-2.062,4.915,4.915,0,0,1,2.879-.727H59.48v-.484a1.393,1.393,0,0,0-.3-.937,1.183,1.183,0,0,0-.949-.352,1.345,1.345,0,0,0-.895.273.929.929,0,0,0-.324.75H54.754a2.268,2.268,0,0,1,.453-1.359,3,3,0,0,1,1.281-.98,4.669,4.669,0,0,1,1.859-.355,3.689,3.689,0,0,1,2.48.785,2.747,2.747,0,0,1,.918,2.207v3.664a4.041,4.041,0,0,0,.336,1.82V39Zm-1.867-1.57a1.945,1.945,0,0,0,.922-.223,1.462,1.462,0,0,0,.625-.6V35.156h-.844q-1.7,0-1.8,1.172l-.008.133a.9.9,0,0,0,.3.7A1.153,1.153,0,0,0,57.934,37.43Zm8.25-8.961v2.078h1.445V32.2H66.184v4.219a1.007,1.007,0,0,0,.18.672.9.9,0,0,0,.688.2,3.6,3.6,0,0,0,.664-.055v1.711a4.648,4.648,0,0,1-1.367.2,2.156,2.156,0,0,1-2.422-2.4V32.2H62.691V30.547h1.234V28.469Zm6.594,10.688a4.15,4.15,0,0,1-3.027-1.141,4.054,4.054,0,0,1-1.168-3.039v-.219a5.106,5.106,0,0,1,.492-2.277,3.612,3.612,0,0,1,1.395-1.547,3.914,3.914,0,0,1,2.059-.543,3.508,3.508,0,0,1,2.73,1.094,4.444,4.444,0,0,1,1,3.1v.922H70.871a2.1,2.1,0,0,0,.66,1.328,2,2,0,0,0,1.395.5,2.437,2.437,0,0,0,2.039-.945l1.109,1.242A3.389,3.389,0,0,1,74.7,38.754,4.511,4.511,0,0,1,72.777,39.156Zm-.258-6.945a1.411,1.411,0,0,0-1.09.455,2.357,2.357,0,0,0-.535,1.3h3.141v-.181a1.681,1.681,0,0,0-.406-1.165A1.456,1.456,0,0,0,72.52,32.211Zm4.688,2.5a4.954,4.954,0,0,1,.926-3.133,3,3,0,0,1,2.5-1.187,2.631,2.631,0,0,1,2.164.953l.094-.8h2.047v8.172a3.613,3.613,0,0,1-.5,1.93,3.236,3.236,0,0,1-1.418,1.25,4.985,4.985,0,0,1-2.141.43,4.635,4.635,0,0,1-1.812-.371A3.217,3.217,0,0,1,77.723,41l1-1.375a2.645,2.645,0,0,0,2.047.945,1.936,1.936,0,0,0,1.4-.48,1.8,1.8,0,0,0,.5-1.363v-.453a2.612,2.612,0,0,1-2.055.883,2.992,2.992,0,0,1-2.465-1.191,4.953,4.953,0,0,1-.941-3.16Zm2.258.168a3.085,3.085,0,0,0,.461,1.8,1.466,1.466,0,0,0,1.266.653,1.568,1.568,0,0,0,1.477-.775V33a1.564,1.564,0,0,0-1.461-.775,1.476,1.476,0,0,0-1.277.665A3.477,3.477,0,0,0,79.465,34.879ZM89.051,39H86.785V30.547h2.266Zm-2.4-10.641a1.112,1.112,0,0,1,.34-.836,1.465,1.465,0,0,1,1.848,0,1.193,1.193,0,0,1,0,1.68A1.448,1.448,0,0,1,87,29.2,1.108,1.108,0,0,1,86.652,28.359ZM95.809,39a2.507,2.507,0,0,1-.227-.758,2.732,2.732,0,0,1-2.133.914,3,3,0,0,1-2.059-.719,2.312,2.312,0,0,1-.816-1.812,2.389,2.389,0,0,1,1-2.062,4.915,4.915,0,0,1,2.879-.727h1.039v-.484a1.393,1.393,0,0,0-.3-.937,1.183,1.183,0,0,0-.949-.352,1.345,1.345,0,0,0-.895.273.929.929,0,0,0-.324.75H90.762a2.268,2.268,0,0,1,.453-1.359,3,3,0,0,1,1.281-.98,4.669,4.669,0,0,1,1.859-.355,3.689,3.689,0,0,1,2.48.785,2.747,2.747,0,0,1,.918,2.207v3.664a4.041,4.041,0,0,0,.336,1.82V39Zm-1.867-1.57a1.945,1.945,0,0,0,.922-.223,1.462,1.462,0,0,0,.625-.6V35.156h-.844q-1.7,0-1.8,1.172l-.008.133a.9.9,0,0,0,.3.7A1.153,1.153,0,0,0,93.941,37.43Zm10.125-.766a.727.727,0,0,0-.41-.652,4.659,4.659,0,0,0-1.316-.426q-3.016-.633-3.016-2.562a2.323,2.323,0,0,1,.934-1.879,3.766,3.766,0,0,1,2.441-.754,4.053,4.053,0,0,1,2.574.758,2.388,2.388,0,0,1,.965,1.969H103.98a1.092,1.092,0,0,0-.312-.8,1.322,1.322,0,0,0-.977-.316,1.351,1.351,0,0,0-.883.258.814.814,0,0,0-.312.656.7.7,0,0,0,.355.605,3.657,3.657,0,0,0,1.2.4,9.8,9.8,0,0,1,1.422.379,2.336,2.336,0,0,1,1.789,2.273,2.2,2.2,0,0,1-.992,1.871,4.28,4.28,0,0,1-2.562.715,4.47,4.47,0,0,1-1.887-.379,3.166,3.166,0,0,1-1.293-1.039,2.414,2.414,0,0,1-.469-1.426H101.2a1.179,1.179,0,0,0,.445.922,1.766,1.766,0,0,0,1.109.32,1.635,1.635,0,0,0,.98-.246A.766.766,0,0,0,104.066,36.664Z" transform="translate(820.5 1305.7)" fill="#12263f"/>
    <path id="Trazado_873768" data-name="Trazado 873768" d="M32.438,12.656H28.328L27.547,15H25.055L29.289,3.625h2.172L35.719,15H33.227Zm-3.477-1.9H31.8L30.375,6.5Zm9.375-4.211.07.977a2.951,2.951,0,0,1,2.43-1.133,2.453,2.453,0,0,1,2,.789,3.682,3.682,0,0,1,.672,2.359V15H41.25V9.594a1.465,1.465,0,0,0-.312-1.043A1.4,1.4,0,0,0,39.9,8.227a1.553,1.553,0,0,0-1.43.813V15H36.211V6.547ZM50.117,15a2.507,2.507,0,0,1-.227-.758,2.732,2.732,0,0,1-2.133.914,3,3,0,0,1-2.059-.719,2.312,2.312,0,0,1-.816-1.812,2.389,2.389,0,0,1,1-2.062,4.915,4.915,0,0,1,2.879-.727H49.8V9.352a1.393,1.393,0,0,0-.3-.937,1.183,1.183,0,0,0-.949-.352,1.345,1.345,0,0,0-.895.273.929.929,0,0,0-.324.75H45.07a2.268,2.268,0,0,1,.453-1.359,3,3,0,0,1,1.281-.98,4.669,4.669,0,0,1,1.859-.355,3.689,3.689,0,0,1,2.48.785,2.747,2.747,0,0,1,.918,2.207v3.664a4.041,4.041,0,0,0,.336,1.82V15ZM48.25,13.43a1.945,1.945,0,0,0,.922-.223,1.462,1.462,0,0,0,.625-.6V11.156h-.844q-1.7,0-1.8,1.172l-.008.133a.9.9,0,0,0,.3.7A1.153,1.153,0,0,0,48.25,13.43ZM49.109,3H51.57L49.406,5.422H47.57Zm7.07,12H53.914V3H56.18Zm4.242,0H58.156V6.547h2.266Zm-2.4-10.641a1.112,1.112,0,0,1,.34-.836,1.465,1.465,0,0,1,1.848,0,1.105,1.105,0,0,1,.344.836,1.108,1.108,0,0,1-.348.844,1.448,1.448,0,0,1-1.836,0A1.108,1.108,0,0,1,58.023,4.359Zm8.836,8.3a.727.727,0,0,0-.41-.652,4.659,4.659,0,0,0-1.316-.426q-3.016-.633-3.016-2.562a2.323,2.323,0,0,1,.934-1.879,3.766,3.766,0,0,1,2.441-.754,4.053,4.053,0,0,1,2.574.758,2.388,2.388,0,0,1,.965,1.969H66.773a1.092,1.092,0,0,0-.312-.8A1.322,1.322,0,0,0,65.484,8a1.351,1.351,0,0,0-.883.258.814.814,0,0,0-.312.656.7.7,0,0,0,.355.605,3.657,3.657,0,0,0,1.2.4,9.8,9.8,0,0,1,1.422.379,2.336,2.336,0,0,1,1.789,2.273,2.2,2.2,0,0,1-.992,1.871,4.28,4.28,0,0,1-2.562.715,4.47,4.47,0,0,1-1.887-.379,3.166,3.166,0,0,1-1.293-1.039,2.414,2.414,0,0,1-.469-1.426h2.141a1.179,1.179,0,0,0,.445.922,1.766,1.766,0,0,0,1.109.32,1.635,1.635,0,0,0,.98-.246A.766.766,0,0,0,66.859,12.664ZM72.891,15H70.625V6.547h2.266Zm-2.4-10.641a1.112,1.112,0,0,1,.34-.836,1.465,1.465,0,0,1,1.848,0,1.105,1.105,0,0,1,.344.836,1.108,1.108,0,0,1-.348.844,1.448,1.448,0,0,1-1.836,0A1.108,1.108,0,0,1,70.492,4.359Zm8.836,8.3a.727.727,0,0,0-.41-.652,4.659,4.659,0,0,0-1.316-.426q-3.016-.633-3.016-2.562a2.323,2.323,0,0,1,.934-1.879,3.766,3.766,0,0,1,2.441-.754,4.053,4.053,0,0,1,2.574.758A2.388,2.388,0,0,1,81.5,9.117H79.242a1.092,1.092,0,0,0-.312-.8A1.322,1.322,0,0,0,77.953,8a1.351,1.351,0,0,0-.883.258.814.814,0,0,0-.312.656.7.7,0,0,0,.355.605,3.657,3.657,0,0,0,1.2.4,9.8,9.8,0,0,1,1.422.379,2.336,2.336,0,0,1,1.789,2.273,2.2,2.2,0,0,1-.992,1.871,4.28,4.28,0,0,1-2.562.715,4.47,4.47,0,0,1-1.887-.379,3.166,3.166,0,0,1-1.293-1.039,2.414,2.414,0,0,1-.469-1.426h2.141a1.179,1.179,0,0,0,.445.922,1.766,1.766,0,0,0,1.109.32,1.635,1.635,0,0,0,.98-.246A.766.766,0,0,0,79.328,12.664Zm7.281-1.953A5.094,5.094,0,0,1,87.5,7.563a2.877,2.877,0,0,1,2.426-1.172,2.589,2.589,0,0,1,2.039.922V3h2.266V15H92.188l-.109-.9a2.657,2.657,0,0,1-2.172,1.055,2.869,2.869,0,0,1-2.395-1.176A5.258,5.258,0,0,1,86.609,10.711Zm2.258.168a3.337,3.337,0,0,0,.414,1.823,1.349,1.349,0,0,0,1.2.634,1.511,1.511,0,0,0,1.477-.884V9.111A1.489,1.489,0,0,0,90.5,8.227Q88.867,8.227,88.867,10.879Zm11,4.277a4.15,4.15,0,0,1-3.027-1.141,4.054,4.054,0,0,1-1.168-3.039v-.219a5.106,5.106,0,0,1,.492-2.277,3.612,3.612,0,0,1,1.395-1.547,3.914,3.914,0,0,1,2.059-.543,3.508,3.508,0,0,1,2.73,1.094,4.444,4.444,0,0,1,1,3.1v.922H97.961a2.1,2.1,0,0,0,.66,1.328,2,2,0,0,0,1.395.5,2.437,2.437,0,0,0,2.039-.945l1.109,1.242a3.389,3.389,0,0,1-1.375,1.121A4.511,4.511,0,0,1,99.867,15.156Zm-.258-6.945a1.411,1.411,0,0,0-1.09.455,2.357,2.357,0,0,0-.535,1.3h3.141V9.788a1.681,1.681,0,0,0-.406-1.165A1.456,1.456,0,0,0,99.609,8.211Zm7.4,6.789h-2.266V3h2.266ZM43.422,39.156a4.15,4.15,0,0,1-3.027-1.141,4.054,4.054,0,0,1-1.168-3.039v-.219a5.106,5.106,0,0,1,.492-2.277,3.612,3.612,0,0,1,1.395-1.547,3.914,3.914,0,0,1,2.059-.543,3.508,3.508,0,0,1,2.73,1.094,4.444,4.444,0,0,1,1,3.1v.922H41.516a2.1,2.1,0,0,0,.66,1.328,2,2,0,0,0,1.395.5,2.437,2.437,0,0,0,2.039-.945l1.109,1.242a3.389,3.389,0,0,1-1.375,1.121A4.511,4.511,0,0,1,43.422,39.156Zm-.258-6.945a1.411,1.411,0,0,0-1.09.455,2.357,2.357,0,0,0-.535,1.3H44.68v-.181a1.681,1.681,0,0,0-.406-1.165A1.456,1.456,0,0,0,43.164,32.211Zm7.094-1.664.07.977a2.951,2.951,0,0,1,2.43-1.133,2.453,2.453,0,0,1,2,.789,3.682,3.682,0,0,1,.672,2.359V39H53.172V33.594a1.465,1.465,0,0,0-.312-1.043,1.4,1.4,0,0,0-1.039-.324,1.553,1.553,0,0,0-1.43.813V39H48.133V30.547Zm9.586-2.078v2.078h1.445V32.2H59.844v4.219a1.007,1.007,0,0,0,.18.672.9.9,0,0,0,.688.2,3.6,3.6,0,0,0,.664-.055v1.711a4.648,4.648,0,0,1-1.367.2,2.156,2.156,0,0,1-2.422-2.4V32.2H56.352V30.547h1.234V28.469ZM61.961,34.7a5.013,5.013,0,0,1,.484-2.242A3.546,3.546,0,0,1,63.84,30.93a4.069,4.069,0,0,1,2.113-.539,3.849,3.849,0,0,1,2.793,1.047,4.2,4.2,0,0,1,1.207,2.844l.016.578a4.418,4.418,0,0,1-1.086,3.121,4.209,4.209,0,0,1-5.832,0,4.5,4.5,0,0,1-1.09-3.187Zm2.258.16a3.16,3.16,0,0,0,.453,1.843,1.628,1.628,0,0,0,2.578.008,3.457,3.457,0,0,0,.461-2.015,3.128,3.128,0,0,0-.461-1.831,1.5,1.5,0,0,0-1.3-.649,1.474,1.474,0,0,0-1.281.646A3.516,3.516,0,0,0,64.219,34.856Zm11.891-2.192A6.134,6.134,0,0,0,75.3,32.6a1.654,1.654,0,0,0-1.68.867V39H71.359V30.547h2.133l.063,1.008a2.092,2.092,0,0,1,1.883-1.164,2.366,2.366,0,0,1,.7.1Zm3.164-2.117.07.977a2.951,2.951,0,0,1,2.43-1.133,2.453,2.453,0,0,1,2,.789,3.682,3.682,0,0,1,.672,2.359V39H82.188V33.594a1.465,1.465,0,0,0-.312-1.043,1.4,1.4,0,0,0-1.039-.324,1.553,1.553,0,0,0-1.43.813V39H77.148V30.547ZM85.8,34.7a5.013,5.013,0,0,1,.484-2.242,3.546,3.546,0,0,1,1.395-1.523,4.069,4.069,0,0,1,2.113-.539,3.849,3.849,0,0,1,2.793,1.047A4.2,4.2,0,0,1,93.8,34.281l.016.578a4.418,4.418,0,0,1-1.086,3.121,4.209,4.209,0,0,1-5.832,0A4.5,4.5,0,0,1,85.8,34.8Zm2.258.16a3.16,3.16,0,0,0,.453,1.843,1.628,1.628,0,0,0,2.578.008,3.457,3.457,0,0,0,.461-2.015,3.128,3.128,0,0,0-.461-1.831,1.5,1.5,0,0,0-1.3-.649,1.474,1.474,0,0,0-1.281.646A3.516,3.516,0,0,0,88.063,34.856Z" transform="translate(648.5 1461.512)" fill="#12263f"/>
    <path id="Trazado_873770" data-name="Trazado 873770" d="M48.8,13.563a4.068,4.068,0,0,1-1.789,1.176,7.492,7.492,0,0,1-2.562.418,5.076,5.076,0,0,1-2.59-.645,4.3,4.3,0,0,1-1.719-1.871,6.585,6.585,0,0,1-.621-2.883V8.984a6.994,6.994,0,0,1,.574-2.949A4.248,4.248,0,0,1,41.75,4.129a5.453,5.453,0,0,1,5.7.3A4.123,4.123,0,0,1,48.8,7.242H46.52a2.268,2.268,0,0,0-.691-1.43,2.208,2.208,0,0,0-1.473-.453,2.078,2.078,0,0,0-1.82.9A4.724,4.724,0,0,0,41.9,8.93v.727a4.5,4.5,0,0,0,.68,2.7,2.327,2.327,0,0,0,1.992.914,2.6,2.6,0,0,0,1.883-.562V10.75H44.324V9.023H48.8Zm5.641,1.594a4.15,4.15,0,0,1-3.027-1.141,4.054,4.054,0,0,1-1.168-3.039v-.219a5.106,5.106,0,0,1,.492-2.277,3.612,3.612,0,0,1,1.395-1.547,3.914,3.914,0,0,1,2.059-.543,3.508,3.508,0,0,1,2.73,1.094,4.444,4.444,0,0,1,1,3.1v.922H52.535a2.1,2.1,0,0,0,.66,1.328,2,2,0,0,0,1.395.5,2.437,2.437,0,0,0,2.039-.945l1.109,1.242a3.389,3.389,0,0,1-1.375,1.121A4.511,4.511,0,0,1,54.441,15.156Zm-.258-6.945a1.411,1.411,0,0,0-1.09.455,2.357,2.357,0,0,0-.535,1.3H55.7V9.788a1.681,1.681,0,0,0-.406-1.165A1.456,1.456,0,0,0,54.184,8.211Zm9.594,4.453a.727.727,0,0,0-.41-.652,4.659,4.659,0,0,0-1.316-.426q-3.016-.633-3.016-2.562a2.323,2.323,0,0,1,.934-1.879,3.766,3.766,0,0,1,2.441-.754,4.053,4.053,0,0,1,2.574.758,2.388,2.388,0,0,1,.965,1.969H63.691a1.092,1.092,0,0,0-.312-.8A1.322,1.322,0,0,0,62.4,8a1.351,1.351,0,0,0-.883.258.814.814,0,0,0-.312.656.7.7,0,0,0,.355.605,3.657,3.657,0,0,0,1.2.4,9.8,9.8,0,0,1,1.422.379,2.336,2.336,0,0,1,1.789,2.273,2.2,2.2,0,0,1-.992,1.871,4.28,4.28,0,0,1-2.562.715,4.47,4.47,0,0,1-1.887-.379,3.166,3.166,0,0,1-1.293-1.039,2.414,2.414,0,0,1-.469-1.426H60.91a1.179,1.179,0,0,0,.445.922,1.766,1.766,0,0,0,1.109.32,1.635,1.635,0,0,0,.98-.246A.766.766,0,0,0,63.777,12.664Zm6.352-8.2V6.547h1.445V8.2H70.129v4.219a1.007,1.007,0,0,0,.18.672.9.9,0,0,0,.688.2,3.6,3.6,0,0,0,.664-.055v1.711a4.648,4.648,0,0,1-1.367.2,2.156,2.156,0,0,1-2.422-2.4V8.2H66.637V6.547h1.234V4.469ZM75.215,15H72.949V6.547h2.266Zm-2.4-10.641a1.112,1.112,0,0,1,.34-.836,1.465,1.465,0,0,1,1.848,0,1.105,1.105,0,0,1,.344.836A1.108,1.108,0,0,1,75,5.2a1.448,1.448,0,0,1-1.836,0A1.108,1.108,0,0,1,72.816,4.359ZM76.723,10.7a5.013,5.013,0,0,1,.484-2.242A3.546,3.546,0,0,1,78.6,6.93a4.069,4.069,0,0,1,2.113-.539,3.849,3.849,0,0,1,2.793,1.047,4.2,4.2,0,0,1,1.207,2.844l.016.578a4.418,4.418,0,0,1-1.086,3.121,4.209,4.209,0,0,1-5.832,0,4.5,4.5,0,0,1-1.09-3.187Zm2.258.16a3.16,3.16,0,0,0,.453,1.843,1.628,1.628,0,0,0,2.578.008,3.457,3.457,0,0,0,.461-2.015,3.128,3.128,0,0,0-.461-1.831,1.5,1.5,0,0,0-1.3-.649,1.474,1.474,0,0,0-1.281.646A3.516,3.516,0,0,0,78.98,10.856ZM81.16,3h2.461L81.457,5.422H79.621ZM88.2,6.547l.07.977A2.951,2.951,0,0,1,90.7,6.391a2.453,2.453,0,0,1,2,.789,3.682,3.682,0,0,1,.672,2.359V15H91.113V9.594A1.465,1.465,0,0,0,90.8,8.551a1.4,1.4,0,0,0-1.039-.324,1.553,1.553,0,0,0-1.43.813V15H86.074V6.547ZM26.563,37.336a1.481,1.481,0,0,0,1.016-.344,1.2,1.2,0,0,0,.406-.914H30.1a2.9,2.9,0,0,1-.469,1.574,3.093,3.093,0,0,1-1.262,1.109,3.949,3.949,0,0,1-1.77.395A3.67,3.67,0,0,1,23.742,38,4.56,4.56,0,0,1,22.7,34.82v-.148a4.508,4.508,0,0,1,1.039-3.117,3.627,3.627,0,0,1,2.852-1.164,3.555,3.555,0,0,1,2.543.9,3.2,3.2,0,0,1,.973,2.4H27.984a1.551,1.551,0,0,0-.406-1.072,1.51,1.51,0,0,0-2.223.163,3.333,3.333,0,0,0-.4,1.866v.235a3.375,3.375,0,0,0,.4,1.878A1.377,1.377,0,0,0,26.563,37.336ZM31.039,34.7a5.013,5.013,0,0,1,.484-2.242,3.546,3.546,0,0,1,1.395-1.523,4.069,4.069,0,0,1,2.113-.539,3.849,3.849,0,0,1,2.793,1.047,4.2,4.2,0,0,1,1.207,2.844l.016.578a4.418,4.418,0,0,1-1.086,3.121,4.209,4.209,0,0,1-5.832,0,4.5,4.5,0,0,1-1.09-3.187Zm2.258.16A3.16,3.16,0,0,0,33.75,36.7a1.628,1.628,0,0,0,2.578.008,3.457,3.457,0,0,0,.461-2.015,3.128,3.128,0,0,0-.461-1.831,1.5,1.5,0,0,0-1.3-.649,1.474,1.474,0,0,0-1.281.646A3.516,3.516,0,0,0,33.3,34.856ZM42.82,39H40.555V27H42.82Zm6.758,0a2.507,2.507,0,0,1-.227-.758,2.732,2.732,0,0,1-2.133.914,3,3,0,0,1-2.059-.719,2.312,2.312,0,0,1-.816-1.812,2.389,2.389,0,0,1,1-2.062,4.915,4.915,0,0,1,2.879-.727h1.039v-.484a1.393,1.393,0,0,0-.3-.937,1.183,1.183,0,0,0-.949-.352,1.345,1.345,0,0,0-.895.273.929.929,0,0,0-.324.75H44.531a2.268,2.268,0,0,1,.453-1.359,3,3,0,0,1,1.281-.98,4.669,4.669,0,0,1,1.859-.355,3.689,3.689,0,0,1,2.48.785,2.747,2.747,0,0,1,.918,2.207v3.664a4.041,4.041,0,0,0,.336,1.82V39Zm-1.867-1.57a1.945,1.945,0,0,0,.922-.223,1.462,1.462,0,0,0,.625-.6V35.156h-.844q-1.7,0-1.8,1.172l-.008.133a.9.9,0,0,0,.3.7A1.153,1.153,0,0,0,47.711,37.43Zm13.164-2.578a5.119,5.119,0,0,1-.867,3.168,2.872,2.872,0,0,1-2.422,1.137,2.639,2.639,0,0,1-2.2-1.055l-.1.9H53.258V27h2.258v4.3a2.571,2.571,0,0,1,2.055-.914A2.9,2.9,0,0,1,60,31.527a5.126,5.126,0,0,1,.879,3.2Zm-2.258-.164a3.363,3.363,0,0,0-.406-1.871A1.374,1.374,0,0,0,57,32.227a1.489,1.489,0,0,0-1.484.883v3.336a1.509,1.509,0,0,0,1.5.891,1.394,1.394,0,0,0,1.438-1.078A5.562,5.562,0,0,0,58.617,34.688Zm3.3.008a5.013,5.013,0,0,1,.484-2.242,3.546,3.546,0,0,1,1.395-1.523,4.069,4.069,0,0,1,2.113-.539A3.849,3.849,0,0,1,68.7,31.438a4.2,4.2,0,0,1,1.207,2.844l.016.578a4.418,4.418,0,0,1-1.086,3.121,4.209,4.209,0,0,1-5.832,0,4.5,4.5,0,0,1-1.09-3.187Zm2.258.16a3.16,3.16,0,0,0,.453,1.843,1.628,1.628,0,0,0,2.578.008,3.457,3.457,0,0,0,.461-2.015A3.128,3.128,0,0,0,67.2,32.86a1.5,1.5,0,0,0-1.3-.649,1.474,1.474,0,0,0-1.281.646A3.516,3.516,0,0,0,64.172,34.856Zm11.891-2.192a6.134,6.134,0,0,0-.812-.062,1.654,1.654,0,0,0-1.68.867V39H71.313V30.547h2.133l.063,1.008a2.092,2.092,0,0,1,1.883-1.164,2.366,2.366,0,0,1,.7.1ZM81.813,39a2.507,2.507,0,0,1-.227-.758,2.732,2.732,0,0,1-2.133.914,3,3,0,0,1-2.059-.719,2.312,2.312,0,0,1-.816-1.812,2.389,2.389,0,0,1,1-2.062,4.915,4.915,0,0,1,2.879-.727h1.039v-.484a1.393,1.393,0,0,0-.3-.937,1.183,1.183,0,0,0-.949-.352,1.345,1.345,0,0,0-.895.273.929.929,0,0,0-.324.75H76.766a2.268,2.268,0,0,1,.453-1.359,3,3,0,0,1,1.281-.98,4.669,4.669,0,0,1,1.859-.355,3.689,3.689,0,0,1,2.48.785,2.747,2.747,0,0,1,.918,2.207v3.664a4.041,4.041,0,0,0,.336,1.82V39Zm-1.867-1.57a1.945,1.945,0,0,0,.922-.223,1.462,1.462,0,0,0,.625-.6V35.156h-.844q-1.7,0-1.8,1.172l-.008.133a.9.9,0,0,0,.3.7A1.153,1.153,0,0,0,79.945,37.43Zm8.25-8.961v2.078h1.445V32.2H88.2v4.219a1.007,1.007,0,0,0,.18.672.9.9,0,0,0,.688.2,3.6,3.6,0,0,0,.664-.055v1.711a4.648,4.648,0,0,1-1.367.2,2.156,2.156,0,0,1-2.422-2.4V32.2H84.7V30.547h1.234V28.469ZM93.281,39H91.016V30.547h2.266Zm-2.4-10.641a1.112,1.112,0,0,1,.34-.836,1.465,1.465,0,0,1,1.848,0,1.193,1.193,0,0,1,0,1.68,1.448,1.448,0,0,1-1.836,0A1.108,1.108,0,0,1,90.883,28.359ZM98.3,36.242l1.57-5.7h2.359L99.383,39H97.227l-2.852-8.453h2.359Zm9.7,2.758a2.507,2.507,0,0,1-.227-.758,2.732,2.732,0,0,1-2.133.914,3,3,0,0,1-2.059-.719,2.312,2.312,0,0,1-.816-1.812,2.389,2.389,0,0,1,1-2.062,4.915,4.915,0,0,1,2.879-.727h1.039v-.484a1.393,1.393,0,0,0-.3-.937,1.183,1.183,0,0,0-.949-.352,1.345,1.345,0,0,0-.895.273.929.929,0,0,0-.324.75h-2.258a2.268,2.268,0,0,1,.453-1.359,3,3,0,0,1,1.281-.98,4.669,4.669,0,0,1,1.859-.355,3.689,3.689,0,0,1,2.48.785,2.747,2.747,0,0,1,.918,2.207v3.664a4.041,4.041,0,0,0,.336,1.82V39Zm-1.867-1.57a1.945,1.945,0,0,0,.922-.223,1.462,1.462,0,0,0,.625-.6V35.156h-.844q-1.7,0-1.8,1.172l-.008.133a.9.9,0,0,0,.3.7A1.153,1.153,0,0,0,106.141,37.43Z" transform="translate(986.5 1461.512)" fill="#12263f"/>
    <g id="Grupo_1100058" data-name="Grupo 1100058" transform="translate(511.426 1202.012)">
      <g id="Grupo_1100057" data-name="Grupo 1100057" clip-path="url(#clip-path-3)">
        <path id="Trazado_873603" data-name="Trazado 873603" d="M37.116,0A37.571,37.571,0,0,1,47.165,1.395c1.588.441,2.37,1.62,1.988,2.982s-1.622,1.916-3.261,1.479A32.416,32.416,0,1,0,68.27,28.27c-.427-1.548.017-2.72,1.208-3.224A2.365,2.365,0,0,1,72.686,26.8a35.144,35.144,0,0,1,1.367,12.356C72.919,53.28,66.084,63.81,53.489,70.244c-21,10.729-47.107-1.551-52.475-24.48A37.077,37.077,0,0,1,27.961,1.129,36.126,36.126,0,0,1,37.116,0" transform="translate(0 0)" fill="#6a4d23"/>
        <path id="Trazado_873604" data-name="Trazado 873604" d="M49.78,75.208A25.562,25.562,0,0,1,71.038,50a25.217,25.217,0,0,1,10.561.421c1.522.385,2.256,1.291,2.148,2.571-.13,1.53-1.409,2.378-3.136,1.965a23.207,23.207,0,0,0-6.191-.635,20.918,20.918,0,0,0-3.034,41.436C85.287,98.514,98.107,86.3,96,72.312c-.115-.76-.264-1.516-.421-2.269-.363-1.738.192-2.891,1.566-3.214,1.462-.344,2.574.415,2.957,2.155,2.067,9.383-.073,17.688-6.962,24.41-7.131,6.96-15.807,9.08-25.3,6.154S52.521,89.98,50.29,80.26a23.268,23.268,0,0,1-.51-5.052" transform="translate(-38.252 -38.134)" fill="#6a4d23"/>
        <path id="Trazado_873605" data-name="Trazado 873605" d="M189.406,13.468a2.52,2.52,0,0,1-.836,1.84q-3.968,3.965-7.933,7.933a3.15,3.15,0,0,1-2.054.908c-3.414.319-6.821.71-10.235,1.028a2.572,2.572,0,0,0-1.678.856q-6.036,6.069-12.1,12.109a6.84,6.84,0,0,1-.944.847,2.294,2.294,0,0,1-3.171-3.2,7.113,7.113,0,0,1,.851-.941c3.9-3.9,7.766-7.829,11.714-11.677a4.321,4.321,0,0,0,1.363-2.907c.283-3.186.626-6.366.911-9.551a2.984,2.984,0,0,1,.915-1.93q3.929-3.922,7.849-7.853A2.359,2.359,0,0,1,176.769.2,2.465,2.465,0,0,1,178.3,2.569c.168,2.306.369,4.611.484,6.92.042.842.358,1.114,1.181,1.156,2.309.117,4.614.312,6.919.489a2.417,2.417,0,0,1,2.521,2.335m-15.359-5.6-.28-.187c-1.228,1.263-2.468,2.514-3.671,3.8a1.545,1.545,0,0,0-.293.853c-.254,2.411-.468,4.827-.735,7.237-.079.713.183.865.83.784a31.143,31.143,0,0,1,4.018-.4c2.562.015,4.754-.632,6.284-2.84.415-.6,1.194-.916,1.426-1.758-.779-.039-1.471-.063-2.16-.111-.73-.051-1.457-.135-2.187-.188-2.066-.15-2.764-.858-2.912-2.951-.1-1.413-.214-2.825-.321-4.238" transform="translate(-115.296 -0.015)" fill="#6a4d23"/>
        <path id="Trazado_873606" data-name="Trazado 873606" d="M114.559,127.75c-7.87.008-13.792-5.386-14.564-12.63A13.986,13.986,0,0,1,111,100.236a13.226,13.226,0,0,1,4.03-.232,2.33,2.33,0,1,1-.325,4.624c-4.49-.133-8.107,2.079-9.5,5.934a8.794,8.794,0,0,0,2.114,9.806,8.673,8.673,0,0,0,9.8,2.11,8.972,8.972,0,0,0,5.96-7.971c.021-.191.01-.386.023-.578a2.334,2.334,0,0,1,2.431-2.383,2.3,2.3,0,0,1,2.191,2.5,13.651,13.651,0,0,1-7.121,11.94,12.629,12.629,0,0,1-6.045,1.769" transform="translate(-76.783 -76.797)" fill="#6a4d23"/>
      </g>
    </g>
    <path id="Trazado_873767" data-name="Trazado 873767" d="M20.4,15V3.625h3.5a5.315,5.315,0,0,1,2.684.676,4.712,4.712,0,0,1,1.848,1.922A5.928,5.928,0,0,1,29.1,9.055v.523a5.945,5.945,0,0,1-.652,2.82,4.672,4.672,0,0,1-1.84,1.914,5.355,5.355,0,0,1-2.68.688Zm2.344-9.477v7.594h1.133a2.545,2.545,0,0,0,2.1-.9,4.06,4.06,0,0,0,.742-2.57v-.6A4.124,4.124,0,0,0,26,6.418a2.537,2.537,0,0,0-2.1-.895Zm11.8,9.633a4.15,4.15,0,0,1-3.027-1.141,4.054,4.054,0,0,1-1.168-3.039v-.219A5.106,5.106,0,0,1,30.84,8.48a3.612,3.612,0,0,1,1.395-1.547,3.914,3.914,0,0,1,2.059-.543,3.508,3.508,0,0,1,2.73,1.094,4.444,4.444,0,0,1,1,3.1v.922H32.637a2.1,2.1,0,0,0,.66,1.328,2,2,0,0,0,1.395.5,2.437,2.437,0,0,0,2.039-.945l1.109,1.242a3.389,3.389,0,0,1-1.375,1.121A4.511,4.511,0,0,1,34.543,15.156Zm-.258-6.945a1.411,1.411,0,0,0-1.09.455,2.357,2.357,0,0,0-.535,1.3H35.8V9.788a1.681,1.681,0,0,0-.406-1.165A1.456,1.456,0,0,0,34.285,8.211ZM39.848,15V8.2H38.59V6.547h1.258V6.156a3.17,3.17,0,0,1,.98-2.457,3.945,3.945,0,0,1,2.723-.863,9.031,9.031,0,0,1,2.563.461l-.328,1.867A10,10,0,0,0,44.6,4.871a5.835,5.835,0,0,0-.906-.066q-1.578,0-1.578,1.4v.344h1.664V8.2H42.113V15Zm7.32,0H44.9V6.547h2.266Zm3.945-8.453.07.977a2.951,2.951,0,0,1,2.43-1.133,2.453,2.453,0,0,1,2,.789,3.682,3.682,0,0,1,.672,2.359V15H54.027V9.594a1.465,1.465,0,0,0-.312-1.043,1.4,1.4,0,0,0-1.039-.324,1.553,1.553,0,0,0-1.43.813V15H48.988V6.547ZM60.379,15H58.113V6.547h2.266ZM57.98,4.359a1.112,1.112,0,0,1,.34-.836,1.465,1.465,0,0,1,1.848,0,1.105,1.105,0,0,1,.344.836,1.108,1.108,0,0,1-.348.844,1.448,1.448,0,0,1-1.836,0A1.108,1.108,0,0,1,57.98,4.359Zm7.773,8.977a1.481,1.481,0,0,0,1.016-.344,1.2,1.2,0,0,0,.406-.914h2.117a2.9,2.9,0,0,1-.469,1.574,3.093,3.093,0,0,1-1.262,1.109,3.949,3.949,0,0,1-1.77.395A3.67,3.67,0,0,1,62.934,14a4.56,4.56,0,0,1-1.047-3.184v-.148a4.508,4.508,0,0,1,1.039-3.117,3.627,3.627,0,0,1,2.852-1.164,3.555,3.555,0,0,1,2.543.9,3.2,3.2,0,0,1,.973,2.4H67.176a1.551,1.551,0,0,0-.406-1.072,1.51,1.51,0,0,0-2.223.163,3.333,3.333,0,0,0-.4,1.866v.235a3.375,3.375,0,0,0,.4,1.878A1.377,1.377,0,0,0,65.754,13.336ZM72.965,15H70.7V6.547h2.266Zm-2.4-10.641a1.112,1.112,0,0,1,.34-.836,1.465,1.465,0,0,1,1.848,0,1.105,1.105,0,0,1,.344.836,1.108,1.108,0,0,1-.348.844,1.448,1.448,0,0,1-1.836,0A1.108,1.108,0,0,1,70.566,4.359ZM74.473,10.7a5.013,5.013,0,0,1,.484-2.242A3.546,3.546,0,0,1,76.352,6.93a4.069,4.069,0,0,1,2.113-.539,3.849,3.849,0,0,1,2.793,1.047,4.2,4.2,0,0,1,1.207,2.844l.016.578a4.418,4.418,0,0,1-1.086,3.121,4.209,4.209,0,0,1-5.832,0,4.5,4.5,0,0,1-1.09-3.187Zm2.258.16a3.16,3.16,0,0,0,.453,1.843,1.628,1.628,0,0,0,2.578.008,3.457,3.457,0,0,0,.461-2.015,3.128,3.128,0,0,0-.461-1.831,1.5,1.5,0,0,0-1.3-.649,1.474,1.474,0,0,0-1.281.646A3.516,3.516,0,0,0,76.73,10.856ZM78.91,3h2.461L79.207,5.422H77.371Zm7.039,3.547.07.977a2.951,2.951,0,0,1,2.43-1.133,2.453,2.453,0,0,1,2,.789,3.682,3.682,0,0,1,.672,2.359V15H88.863V9.594a1.465,1.465,0,0,0-.312-1.043,1.4,1.4,0,0,0-1.039-.324,1.553,1.553,0,0,0-1.43.813V15H83.824V6.547Zm10.516,4.164a5.094,5.094,0,0,1,.887-3.148,2.877,2.877,0,0,1,2.426-1.172,2.589,2.589,0,0,1,2.039.922V3h2.266V15h-2.039l-.109-.9a2.657,2.657,0,0,1-2.172,1.055,2.869,2.869,0,0,1-2.395-1.176A5.258,5.258,0,0,1,96.465,10.711Zm2.258.168a3.337,3.337,0,0,0,.414,1.823,1.349,1.349,0,0,0,1.2.634,1.511,1.511,0,0,0,1.477-.884V9.111a1.489,1.489,0,0,0-1.461-.884Q98.723,8.227,98.723,10.879Zm11,4.277a4.15,4.15,0,0,1-3.027-1.141,4.054,4.054,0,0,1-1.168-3.039v-.219a5.106,5.106,0,0,1,.492-2.277,3.612,3.612,0,0,1,1.395-1.547,3.914,3.914,0,0,1,2.059-.543,3.508,3.508,0,0,1,2.73,1.094,4.444,4.444,0,0,1,1,3.1v.922h-5.383a2.1,2.1,0,0,0,.66,1.328,2,2,0,0,0,1.395.5,2.437,2.437,0,0,0,2.039-.945l1.109,1.242a3.389,3.389,0,0,1-1.375,1.121A4.511,4.511,0,0,1,109.723,15.156Zm-.258-6.945a1.411,1.411,0,0,0-1.09.455,2.357,2.357,0,0,0-.535,1.3h3.141V9.788a1.681,1.681,0,0,0-.406-1.165A1.456,1.456,0,0,0,109.465,8.211ZM16.844,36.242l1.57-5.7h2.359L17.922,39H15.766l-2.852-8.453h2.359ZM24.148,39H21.883V30.547h2.266Zm-2.4-10.641a1.112,1.112,0,0,1,.34-.836,1.465,1.465,0,0,1,1.848,0,1.193,1.193,0,0,1,0,1.68,1.448,1.448,0,0,1-1.836,0A1.108,1.108,0,0,1,21.75,28.359Zm8.836,8.3a.727.727,0,0,0-.41-.652,4.659,4.659,0,0,0-1.316-.426q-3.016-.633-3.016-2.562a2.323,2.323,0,0,1,.934-1.879,3.766,3.766,0,0,1,2.441-.754,4.053,4.053,0,0,1,2.574.758,2.388,2.388,0,0,1,.965,1.969H30.5a1.092,1.092,0,0,0-.312-.8A1.322,1.322,0,0,0,29.211,32a1.351,1.351,0,0,0-.883.258.814.814,0,0,0-.312.656.7.7,0,0,0,.355.605,3.657,3.657,0,0,0,1.2.4,9.8,9.8,0,0,1,1.422.379,2.336,2.336,0,0,1,1.789,2.273,2.205,2.205,0,0,1-.992,1.871,4.28,4.28,0,0,1-2.562.715,4.47,4.47,0,0,1-1.887-.379,3.166,3.166,0,0,1-1.293-1.039,2.414,2.414,0,0,1-.469-1.426h2.141a1.179,1.179,0,0,0,.445.922,1.766,1.766,0,0,0,1.109.32,1.635,1.635,0,0,0,.98-.246A.766.766,0,0,0,30.586,36.664ZM36.617,39H34.352V30.547h2.266Zm-2.4-10.641a1.112,1.112,0,0,1,.34-.836,1.465,1.465,0,0,1,1.848,0,1.193,1.193,0,0,1,0,1.68,1.448,1.448,0,0,1-1.836,0A1.108,1.108,0,0,1,34.219,28.359ZM38.125,34.7a5.013,5.013,0,0,1,.484-2.242A3.546,3.546,0,0,1,40,30.93a4.069,4.069,0,0,1,2.113-.539,3.849,3.849,0,0,1,2.793,1.047,4.2,4.2,0,0,1,1.207,2.844l.016.578a4.418,4.418,0,0,1-1.086,3.121,4.209,4.209,0,0,1-5.832,0,4.5,4.5,0,0,1-1.09-3.187Zm2.258.16a3.16,3.16,0,0,0,.453,1.843,1.628,1.628,0,0,0,2.578.008,3.457,3.457,0,0,0,.461-2.015,3.128,3.128,0,0,0-.461-1.831,1.5,1.5,0,0,0-1.3-.649,1.474,1.474,0,0,0-1.281.646A3.516,3.516,0,0,0,40.383,34.856ZM42.563,27h2.461l-2.164,2.422H41.023ZM49.6,30.547l.07.977a2.951,2.951,0,0,1,2.43-1.133,2.453,2.453,0,0,1,2,.789,3.682,3.682,0,0,1,.672,2.359V39H52.516V33.594a1.465,1.465,0,0,0-.312-1.043,1.4,1.4,0,0,0-1.039-.324,1.553,1.553,0,0,0-1.43.813V39H47.477V30.547ZM63.625,35.8l1.563-5.258h2.422l-3.4,9.766-.187.445a2.577,2.577,0,0,1-2.5,1.656,3.553,3.553,0,0,1-1-.148V40.555l.344.008a1.857,1.857,0,0,0,.957-.2,1.283,1.283,0,0,0,.5-.648l.266-.7-2.961-8.477h2.43ZM74.6,30.547l.07.945a2.971,2.971,0,0,1,2.43-1.1,2.255,2.255,0,0,1,2.242,1.289,2.9,2.9,0,0,1,2.539-1.289,2.521,2.521,0,0,1,2.047.8A3.681,3.681,0,0,1,84.6,33.6V39H82.336V33.609a1.61,1.61,0,0,0-.281-1.051,1.246,1.246,0,0,0-.992-.332,1.409,1.409,0,0,0-1.406.969l.008,5.8H77.406V33.617a1.59,1.59,0,0,0-.289-1.062,1.259,1.259,0,0,0-.984-.328,1.463,1.463,0,0,0-1.391.8V39H72.484V30.547ZM88.719,39H86.453V30.547h2.266Zm-2.4-10.641a1.112,1.112,0,0,1,.34-.836,1.465,1.465,0,0,1,1.848,0,1.193,1.193,0,0,1,0,1.68,1.448,1.448,0,0,1-1.836,0A1.108,1.108,0,0,1,86.32,28.359Zm8.836,8.3a.727.727,0,0,0-.41-.652,4.659,4.659,0,0,0-1.316-.426q-3.016-.633-3.016-2.562a2.323,2.323,0,0,1,.934-1.879,3.766,3.766,0,0,1,2.441-.754,4.053,4.053,0,0,1,2.574.758,2.388,2.388,0,0,1,.965,1.969H95.07a1.092,1.092,0,0,0-.312-.8A1.322,1.322,0,0,0,93.781,32a1.351,1.351,0,0,0-.883.258.814.814,0,0,0-.312.656.7.7,0,0,0,.355.605,3.657,3.657,0,0,0,1.2.4,9.8,9.8,0,0,1,1.422.379,2.336,2.336,0,0,1,1.789,2.273,2.2,2.2,0,0,1-.992,1.871,4.28,4.28,0,0,1-2.562.715,4.47,4.47,0,0,1-1.887-.379,3.166,3.166,0,0,1-1.293-1.039,2.414,2.414,0,0,1-.469-1.426h2.141a1.179,1.179,0,0,0,.445.922,1.766,1.766,0,0,0,1.109.32,1.635,1.635,0,0,0,.98-.246A.766.766,0,0,0,95.156,36.664ZM101.188,39H98.922V30.547h2.266Zm-2.4-10.641a1.112,1.112,0,0,1,.34-.836,1.465,1.465,0,0,1,1.848,0,1.193,1.193,0,0,1,0,1.68,1.448,1.448,0,0,1-1.836,0A1.108,1.108,0,0,1,98.789,28.359ZM102.7,34.7a5.013,5.013,0,0,1,.484-2.242,3.546,3.546,0,0,1,1.395-1.523,4.069,4.069,0,0,1,2.113-.539,3.849,3.849,0,0,1,2.793,1.047,4.2,4.2,0,0,1,1.207,2.844l.016.578a4.418,4.418,0,0,1-1.086,3.121,4.209,4.209,0,0,1-5.832,0A4.5,4.5,0,0,1,102.7,34.8Zm2.258.16a3.16,3.16,0,0,0,.453,1.843,1.628,1.628,0,0,0,2.578.008,3.457,3.457,0,0,0,.461-2.015,3.128,3.128,0,0,0-.461-1.831,1.5,1.5,0,0,0-1.3-.649,1.474,1.474,0,0,0-1.281.646A3.516,3.516,0,0,0,104.953,34.856ZM107.133,27h2.461l-2.164,2.422h-1.836Zm7.039,3.547.07.977a2.951,2.951,0,0,1,2.43-1.133,2.453,2.453,0,0,1,2,.789,3.682,3.682,0,0,1,.672,2.359V39h-2.258V33.594a1.465,1.465,0,0,0-.312-1.043,1.4,1.4,0,0,0-1.039-.324,1.553,1.553,0,0,0-1.43.813V39h-2.258V30.547Z" transform="translate(482 1305.7)" fill="#12263f"/>
    <g id="Grupo_1100060" data-name="Grupo 1100060" transform="translate(671 1350.7)">
      <g id="Grupo_1100059" data-name="Grupo 1100059" clip-path="url(#clip-path-4)">
        <path id="Trazado_873607" data-name="Trazado 873607" d="M43.34,228.653a8.733,8.733,0,0,1-3.866-.831c-4.454-1.835-8.933-3.612-13.365-5.5-2.172-.924-4.12-.407-6.1.513-.691.322-.415.753-.251,1.208.715,1.982.588,2.275-1.363,3.106-1.04.443-2.12.807-3.118,1.33-1.344.7-2.168.266-2.922-.928C8.866,222.02,5.329,216.515,1.808,211c-.5-.788-1.013-1.571-1.5-2.371a1.421,1.421,0,0,1,.747-2.276q3.986-1.741,8.02-3.371a1.611,1.611,0,0,1,2.387,1.205c.309,1.126.841,1.134,1.808.71,3.287-1.438,6.621-2.768,9.925-4.167a8.388,8.388,0,0,1,6.736-.045c5.089,2.1,10.191,4.165,15.274,6.278a6.112,6.112,0,0,1,3.69,7.093c-.248,1.233.181,1.159,1,.822q6.479-2.659,12.954-5.329a7.392,7.392,0,0,1,8.654,2.141c2,2.467,1.421,5.255-1.473,6.536-3.55,1.571-7.158,3.012-10.74,4.511q-5.986,2.506-11.968,5.018a8.846,8.846,0,0,1-3.985.9m3.437-10.279a10.455,10.455,0,0,1-4.138-.792c-2.635-1.088-5.263-2.193-7.913-3.244-1.063-.421-1.778-1.064-1.284-2.216.472-1.1,1.418-.961,2.39-.552q3.941,1.657,7.917,3.231c1.277.506,1.959.113,2.257-1.192a3.361,3.361,0,0,0-2.032-3.941c-4.991-2.075-10-4.109-14.987-6.194a5.947,5.947,0,0,0-4.858.051c-3.253,1.39-6.509,2.778-9.792,4.095-.908.364-1.2.656-.751,1.675,1.453,3.279,2.8,6.6,4.144,9.932.374.929.763,1.136,1.719.655a9.417,9.417,0,0,1,8.525,0c2.909,1.316,5.9,2.459,8.856,3.66,7.169,2.908,5.741,2.972,12.911-.008q9.326-3.876,18.631-7.8c1.6-.672,1.748-1.415.476-2.565a4.348,4.348,0,0,0-5.039-.833c-3.647,1.594-7.332,3.1-11.007,4.629a14.842,14.842,0,0,1-6.024,1.409M8.665,206.366c-1.176.49-2.378,1.055-3.624,1.493-1.065.374-1.309.755-.614,1.811,3.046,4.634,6,9.326,8.994,14,.291.455.556.928.875,1.361.651.882,1.213-.043,1.807-.139.572-.093.625-.495.412-1q-3.564-8.473-7.113-16.954c-.127-.3-.2-.691-.737-.569" transform="translate(0 -140.893)" fill="#6a4d23"/>
        <path id="Trazado_873608" data-name="Trazado 873608" d="M103.719,120.465c2.166,0,4.331-.009,6.5,0,1.95.01,2.18.229,2.354,2.143a12.193,12.193,0,0,0,23.778,3.025,15.34,15.34,0,0,0,.61-3.63,1.469,1.469,0,0,1,1.625-1.522q7.235-.021,14.471,0a1.588,1.588,0,0,1,1.7,1.794c.015,1.329.026,2.658,0,3.987a1.64,1.64,0,0,1-1.861,1.794c-1.427-.008-2.857.046-4.281-.016a1.327,1.327,0,0,0-1.582,1.111,10.56,10.56,0,0,1-1.2,3c-.788,1.183-.463,1.9.5,2.712s1.836,1.781,2.724,2.7a1.573,1.573,0,0,1-.012,2.463q-3.067,3.091-6.147,6.169a1.592,1.592,0,0,1-2.563-.021c-1-1.019-2.037-2-3.013-3.04a1.326,1.326,0,0,0-1.892-.362,23.036,23.036,0,0,1-3.67,1.513c-.665.226-.934.516-.909,1.236.053,1.524,0,3.051.019,4.577.014,1.242-.605,1.8-1.813,1.792-2.855-.006-5.71-.011-8.564,0-1.223.006-1.83-.567-1.81-1.794,0-.1,0-.2,0-.3-.037-1.717.528-3.842-.281-5.037s-3.09-1.228-4.571-2.119c-.623-.375-.991-.113-1.4.3-1.07,1.087-2.157,2.157-3.232,3.24a1.587,1.587,0,0,1-2.56-.02c-2.013-2.023-4.022-4.051-6.054-6.056a1.635,1.635,0,0,1,0-2.667c.947-.932,1.843-1.919,2.832-2.8.765-.684,1.065-1.288.4-2.246a10.508,10.508,0,0,1-.96-2.147c-.864-2.191-.857-2.194-3.287-2.194-.984,0-1.969,0-2.953,0a1.6,1.6,0,0,1-1.819-1.811c0-1.181-.008-2.363,0-3.544.012-1.835.395-2.219,2.287-2.233,2.215-.017,4.43,0,6.645,0m.106,2.977c-1.723,0-3.445.007-5.168,0-.576,0-.912.142-.915.823s.312.837.9.83c1.378-.016,2.757.027,4.134-.01a1.836,1.836,0,0,1,2.081,1.628,18.313,18.313,0,0,0,2.475,5.961,1.813,1.813,0,0,1-.366,2.609c-.967.911-1.862,1.9-2.836,2.8-.566.524-.565.894,0,1.423,1.078,1.007,2.113,2.063,3.129,3.132.49.516.843.484,1.317-.025.872-.935,1.84-1.782,2.694-2.733a1.993,1.993,0,0,1,2.962-.4,16.659,16.659,0,0,0,5.69,2.362A1.908,1.908,0,0,1,121.635,144c-.015,1.329.022,2.658-.009,3.986-.017.7.253.959.951.942,1.427-.034,2.857-.057,4.281.008.905.042,1.066-.368,1.04-1.144-.044-1.328,0-2.658-.013-3.987a1.734,1.734,0,0,1,1.46-1.917,19.492,19.492,0,0,0,6.235-2.573,1.682,1.682,0,0,1,2.374.278c.961.988,1.966,1.933,2.91,2.936.489.52.852.689,1.421.073,1-1.084,2.047-2.131,3.132-3.131.61-.562.466-.922-.059-1.415-.968-.908-1.862-1.9-2.831-2.8a1.827,1.827,0,0,1-.326-2.619,18.654,18.654,0,0,0,2.481-5.96,1.824,1.824,0,0,1,2.1-1.593c1.328.034,2.658,0,3.987.009.586,0,1.05-.022,1.041-.839s-.513-.813-1.075-.813c-3.3,0-6.6.018-9.893-.013-.8-.007-1.054.272-1.2,1.07a15.086,15.086,0,0,1-29.744.048c-.163-.88-.511-1.142-1.347-1.118-1.574.046-3.15.013-4.725.017" transform="translate(-66.772 -84.86)" fill="#6a4d23"/>
        <path id="Trazado_873609" data-name="Trazado 873609" d="M149.77,2.942c-.859,0-1.686.013-2.513,0a1.278,1.278,0,0,1-1.378-1.247A1.3,1.3,0,0,1,147.037.083c2.307-.105,4.624-.114,6.931-.011.882.039,1.287.829,1.291,1.719.007,1.97.02,3.94-.006,5.909-.014,1.006-.424,1.759-1.573,1.709-1.077-.046-1.34-.811-1.386-1.739a6.79,6.79,0,0,0-.212-2.4c-1.153,1.125-2.222,2.166-3.287,3.209-1.548,1.516-3.082,3.047-4.648,4.543a1.753,1.753,0,0,0-.64,1.763,4.032,4.032,0,1,1-7.979,1.086,1.521,1.521,0,0,0-.917-1.353,24.669,24.669,0,0,1-2.6-1.4c-1.16-.737-2.268-1.253-3.618-.38a1.783,1.783,0,0,1-1.422.177c-1.44-.6-2.274.207-3.2,1.083-1.716,1.624-3.478,3.2-5.268,4.744A2.389,2.389,0,0,0,117.553,21a3.964,3.964,0,0,1-3.71,4.325,4.181,4.181,0,0,1-4.254-3.175,4.075,4.075,0,0,1,3.012-4.873,2.045,2.045,0,0,1,1.156-.107c1.53.636,2.446-.259,3.432-1.181,1.8-1.681,3.637-3.319,5.481-4.949a1.561,1.561,0,0,0,.592-1.516,4,4,0,0,1,3.445-4.679c2.314-.318,4.15,1.169,4.6,3.726.009.048.009.1.019.147.246,1.239,5.14,3.726,6.281,3.179a2.994,2.994,0,0,1,2.131-.418c1.392.444,2.171-.312,3-1.189,2.294-2.427,4.616-4.827,7.034-7.349M127.283,7.8c-.664.055-1.064.381-1.091,1.015a1.008,1.008,0,0,0,1.071,1.14.955.955,0,0,0,1.042-1A1.018,1.018,0,0,0,127.283,7.8M113.577,20.123c-.65.11-1.075.435-1.065,1.16a.986.986,0,0,0,1.028,1.031.974.974,0,0,0,1.069-.984,1.071,1.071,0,0,0-1.032-1.207m26.111-3.558a1.013,1.013,0,0,0,.892-1.193,1.048,1.048,0,1,0-2.081.25c.056.636.452.94,1.189.943" transform="translate(-77.134 0)" fill="#6a4d23"/>
        <path id="Trazado_873610" data-name="Trazado 873610" d="M159.724,87.018c0,3.544.008,7.087,0,10.631-.006,2.157-.987,2.741-2.907,1.68a11.369,11.369,0,0,1-6.143-10.662c0-1.051-.018-1.8-1.425-1.728-.962.049-1.307-.768-1.311-1.636q-.024-4.8,0-9.6a1.584,1.584,0,0,1,1.741-1.756q4.134-.035,8.269,0c1.29.01,1.8.732,1.793,2-.03,3.691-.01,7.383-.01,11.074M156.688,95.7c.037-.664.066-.948.066-1.233,0-5.556-.009-11.111.011-16.666,0-.736-.315-.918-.977-.9-1.277.032-2.558.053-3.834-.006-.867-.04-1.095.318-1.074,1.122.044,1.67.028,3.343.007,5.014-.008.63.1,1.023.872,1.016,1.489-.013,1.884.911,1.88,2.237a36.94,36.94,0,0,0,.185,4.413,7.891,7.891,0,0,0,2.864,5.006" transform="translate(-104.206 -52.082)" fill="#6a4d23"/>
        <path id="Trazado_873611" data-name="Trazado 873611" d="M237.489,53.185c0-3-.012-6,0-9,.009-1.8.393-2.2,2.148-2.214q3.687-.031,7.375,0c1.682.013,2.162.452,2.167,2.06q.027,9.219,0,18.438c0,1.648-.369,2-2.014,2.012-2.605.022-5.212-.015-7.817.013-1.305.014-1.879-.575-1.869-1.872.024-3.147.008-6.293.007-9.44m2.969.035c0,1.328-.029,2.656.008,3.983.038,1.367-.58,3.137.236,3.994.892.939,2.7.162,4.1.335,1.23.153,1.46-.408,1.442-1.508-.058-3.588,0-7.179-.031-10.768-.011-1.369.583-3.149-.233-4-.89-.929-2.708-.162-4.1-.335-1.246-.154-1.468.426-1.436,1.514.066,2.26.02,4.523.02,6.785" transform="translate(-167.297 -29.558)" fill="#6a4d23"/>
        <path id="Trazado_873612" data-name="Trazado 873612" d="M192.758,99.274c0-3.1-.01-6.2,0-9.306.007-1.592.437-2.039,2-2.051q3.84-.031,7.682,0c1.542.01,2.094.508,2.1,2,.026,4.185,0,8.371.015,12.557a3.716,3.716,0,0,1-.552,1.814,11.322,11.322,0,0,1-9.144,6.168c-1.517.166-2.091-.347-2.1-1.873-.018-3.1-.005-6.2-.006-9.306m2.967-.19c0,2.408-.007,4.815.008,7.223,0,.383-.206.914.6.849,1.947-.156,5.213-3.3,5.243-5.235.051-3.341,0-6.683.027-10.024.007-.757-.233-1.061-1.012-1.031a33.687,33.687,0,0,1-3.536-.007c-1.005-.066-1.385.228-1.349,1.3.077,2.307.024,4.618.024,6.928" transform="translate(-135.788 -61.923)" fill="#6a4d23"/>
      </g>
    </g>
    <g id="Grupo_1100062" data-name="Grupo 1100062" transform="translate(853.889 1206.591)">
      <g id="Grupo_1100061" data-name="Grupo 1100061" clip-path="url(#clip-path-5)">
        <path id="Trazado_873613" data-name="Trazado 873613" d="M0,38.761Q0,22.954,0,7.147,0,.009,7.19,0,30.655,0,54.12,0a6.856,6.856,0,0,1,5.247,1.916,6.059,6.059,0,0,1,1.684,3.978c.09,1.547.062,3.1.025,4.654-.027,1.132-.75,1.534-1.8,1.529-2.246-.01-4.494.038-6.739-.017-.979-.024-1.261.342-1.256,1.282q.046,8.638,0,17.277c0,.831.181,1.253,1.116,1.318a5.932,5.932,0,0,1,3.937,2.024c.983,1.038,2.034,2.01,3.016,3.048a5.4,5.4,0,0,1,.006,7.9c-2.355,2.438-4.766,4.822-7.186,7.2a2.766,2.766,0,0,0-.893,2.16c.031,5.636.019,11.273.013,16.91,0,1.768-.4,2.176-2.149,2.177q-23.465.005-46.93,0C.383,73.351,0,72.963,0,71.11Q0,54.935,0,38.761m2.27-.952q0,15.745,0,31.491c0,1.778,0,1.782,1.827,1.783q18.38,0,36.759,0c2.328,0,4.656-.021,6.984.008.795.01,1.193-.2,1.188-1.093-.029-4.452-.011-8.9-.016-13.356,0-.273.1-.646-.189-.782-.367-.172-.581.206-.8.421a48.712,48.712,0,0,0-3.454,3.474,18.655,18.655,0,0,1-11.485,6.687c-1.321.233-2.6.686-3.905,1.03a16.471,16.471,0,0,1-3.673.912c-4.9.1-9.8.088-14.7.007a3.342,3.342,0,0,1-3.165-2.336c-.859-2.3.721-4.477,3.414-4.773.409-.045,1.06.176,1.116-.448.13-1.456.458-3.041-.152-4.337-.356-.755-1.739-.188-2.653-.3-.161-.02-.327,0-.49-.012a1.44,1.44,0,0,1-1.511-1.571q-.023-4.473,0-8.945a1.42,1.42,0,0,1,1.539-1.536c.775-.027,1.553-.039,2.328-.011.723.026,1.045-.258,1.021-1-.032-1.02-.03-2.042,0-3.063.021-.722-.255-1.054-1-1.022s-1.47,0-2.205,0a1.492,1.492,0,0,1-1.691-1.646q-.015-4.411,0-8.822a1.456,1.456,0,0,1,1.613-1.594c.776-.016,1.552,0,2.328-.02.355-.009.836.043.876-.449.116-1.423.426-2.968-.115-4.234-.381-.891-1.783-.245-2.717-.387a3.1,3.1,0,0,0-.367-.007,1.462,1.462,0,0,1-1.617-1.592c-.015-2.981-.019-5.963.005-8.945A1.406,1.406,0,0,1,8.925,9.821q4.472-.026,8.945,0a1.407,1.407,0,0,1,1.542,1.532q.034,4.472,0,8.945a1.456,1.456,0,0,1-1.63,1.577c-.735.013-1.472.041-2.205,0-.807-.042-1.11.322-1.053,1.093.027.365,0,.735,0,1.1,0,2.862,0,2.862,2.8,2.892.163,0,.327,0,.49.006a1.475,1.475,0,0,1,1.6,1.611c.018.776,0,1.552.021,2.328.009.354-.048.838.443.881,1.422.123,2.966.425,4.234-.11.9-.38.247-1.781.393-2.713a2.906,2.906,0,0,0,.006-.367A1.46,1.46,0,0,1,26.1,26.977q4.472-.025,8.945,0a1.407,1.407,0,0,1,1.525,1.548q.029,4.472,0,8.945a1.407,1.407,0,0,1-1.526,1.548q-4.472.035-8.945,0A1.456,1.456,0,0,1,24.517,37.4c-.013-.735-.04-1.472,0-2.2.041-.8-.308-1.116-1.086-1.061-.406.029-.816,0-1.225,0-2.747,0-2.747,0-2.777,2.8,0,.163,0,.327-.005.49a1.476,1.476,0,0,1-1.6,1.608c-.776.019-1.552,0-2.328.021-.353.01-.84-.053-.885.437-.129,1.422-.425,2.965.106,4.235.379.908,1.778.25,2.708.4a2.734,2.734,0,0,0,.367.006,1.46,1.46,0,0,1,1.629,1.58q.028,4.472,0,8.945a1.422,1.422,0,0,1-1.544,1.533c-.775.026-1.553.039-2.327.01-.728-.027-1.031.268-1.017,1.006.027,1.511.021,3.022,0,4.533-.022,1.3-.492,1.766-1.772,1.81-.612.021-1.227-.013-1.837.031a1.2,1.2,0,0,0-1.245,1.245,1.23,1.23,0,0,0,1.278,1.343c.2.02.408.017.612.017,4,0,8.006-.024,12.008.019a1.414,1.414,0,0,0,1.628-1.231c.652-2.571,1.386-5.121,2.052-7.689a12.769,12.769,0,0,1,3.207-6.1c5.9-5.879,11.779-11.788,17.7-17.65a2.717,2.717,0,0,0,.887-2.137c-.026-8.169-.012-16.338-.018-24.506a8.348,8.348,0,0,1,.528-3.118c.59-1.491.6-1.494-.976-1.495q-20.953,0-41.906,0c-3.046,0-4.391,1.352-4.392,4.411q0,15.562,0,31.123m11.15-25.725c-.936,0-1.872.025-2.806-.008-.745-.026-1,.309-.993,1.023q.036,2.745,0,5.491c-.009.714.25,1.035.993,1.024,1.871-.027,3.742-.023,5.613,0,.684.007.935-.3.928-.958-.017-1.871-.024-3.742,0-5.613.011-.77-.368-.98-1.053-.961-.894.025-1.79.006-2.685.007m-.262,24.68c1.12,0,2.016-.027,2.909.009.764.03,1.11-.242,1.095-1.049-.035-1.83-.029-3.661,0-5.491.011-.738-.3-1.01-1.017-1-1.83.025-3.661.033-5.491,0-.824-.016-1.06.363-1.032,1.112.033.894-.023,1.79.011,2.684.045,1.169-.49,2.647.239,3.428.8.853,2.319.164,3.289.311m17.144,0c1.18,0,2.116-.016,3.051.005.657.015.966-.242.959-.927-.018-1.871-.023-3.742,0-5.613.011-.743-.308-1-1.023-.994q-2.745.036-5.492,0c-.713-.009-1.049.247-1.024.992.031.935-.026,1.872.009,2.806.044,1.169-.492,2.647.243,3.426.8.847,2.32.163,3.271.3m-13.147,13.5h-.007c0-.976-.017-1.953.006-2.929.016-.674-.278-.946-.946-.94-1.871.018-3.743.024-5.613,0-.76-.011-.983.345-.974,1.042.022,1.83.025,3.661,0,5.492-.011.733.286,1.016,1.012,1.005,1.749-.025,3.5-.055,5.247.014,1.05.042,1.361-.392,1.288-1.362-.058-.769-.012-1.545-.012-2.318m16.971,13.6a17.1,17.1,0,0,0,4.293-1.471c.7-.4.809-.813.2-1.412q-3.344-3.307-6.652-6.651c-.613-.62-1.013-.473-1.407.219a16.91,16.91,0,0,0-1.46,4.259c-.121.469.157.774.448,1.066q1.767,1.775,3.542,3.541a1.129,1.129,0,0,0,1.034.449m16.1-19.3a5.679,5.679,0,0,0-1.616-1.688c-.512-.369-.82.166-1.114.459-3.646,3.63-7.257,7.295-10.933,10.893-.959.938-.226,1.371.317,1.965.58.635,1.056,1.032,1.877.2,3.6-3.672,7.263-7.288,10.9-10.928a1.564,1.564,0,0,0,.571-.9M55.013,9.8V9.8c.977,0,1.954-.012,2.93,0,.62.011.885-.267.875-.881-.018-1.1.048-2.2-.024-3.3a3.76,3.76,0,0,0-7.477.032c-.065,1.054.006,2.116-.028,3.174-.025.757.335,1,1.037.979.895-.027,1.791-.007,2.686-.007M51.971,34.149a2.979,2.979,0,0,0-1.992.638c-.541.4-.6.805-.1,1.3q3.508,3.488,7,7c.578.582.975.349,1.376-.2a3.366,3.366,0,0,0-.284-4.174c-1.185-1.286-2.448-2.5-3.706-3.719a2.98,2.98,0,0,0-2.284-.844M34.155,53.262a1.2,1.2,0,0,0,.834-.5q5.545-5.536,11.089-11.075c.513-.511.555-.91.015-1.428-.5-.476-.895-.783-1.521-.152-3.709,3.737-7.44,7.451-11.158,11.179-.247.247-.63.5-.388.929a2.359,2.359,0,0,0,1.129,1.046m19.16-5.475a2.333,2.333,0,0,0-1.007-1.228c-.534-.364-.826.139-1.121.432-3.645,3.628-7.272,7.275-10.921,10.9-.554.55-.737.974-.092,1.617.62.619,1.039.542,1.616-.04,3.62-3.653,7.266-7.281,10.9-10.922.226-.226.41-.494.627-.759m2.4-2.477a1.092,1.092,0,0,0-.438-.752q-3.4-3.417-6.82-6.821c-.341-.339-.7-.784-1.211-.214-.452.508,0,.823.3,1.124q2.92,2.951,5.864,5.879a16.68,16.68,0,0,0,1.235,1.18c.577.469.857.061,1.074-.4M27.466,64.81c-.142.643.15.825.733.673.706-.185,1.412-.372,2.112-.577.623-.183.673-.549.218-.959-.682-.616-1.248-1.885-2.05-1.7-.855.2-.635,1.6-.984,2.444a.856.856,0,0,0-.028.12" transform="translate(0 0)" fill="#6a4d23" stroke="#6a4d23" stroke-width="1"/>
        <path id="Trazado_873614" data-name="Trazado 873614" d="M110.088,62.281c-2.527,0-5.054.007-7.582,0a4.656,4.656,0,0,1-1.2-.139.992.992,0,0,1-.785-.977.979.979,0,0,1,.761-.993,4.4,4.4,0,0,1,1.2-.148q7.643-.014,15.286-.006c.082,0,.163,0,.245,0,.824.019,1.683.151,1.654,1.18-.027.934-.847,1.082-1.628,1.084q-3.974.007-7.948,0" transform="translate(-75.882 -45.304)" fill="#6a4d23" stroke="#6a4d23" stroke-width="1"/>
        <path id="Trazado_873615" data-name="Trazado 873615" d="M110.065,82.277q-3.669,0-7.337,0a6.577,6.577,0,0,1-.976-.027c-.654-.1-1.214-.388-1.2-1.141.014-.684.543-.961,1.146-1.068a4.951,4.951,0,0,1,.854-.031q7.582,0,15.164,0c.864,0,1.935-.058,1.961,1.107s-1.036,1.156-1.908,1.158c-2.568.006-5.136,0-7.7,0" transform="translate(-75.906 -60.396)" fill="#6a4d23" stroke="#6a4d23" stroke-width="1"/>
        <path id="Trazado_873616" data-name="Trazado 873616" d="M113.952,42.263c-.691,0-1.384.035-2.071-.01-.7-.046-1.326-.333-1.313-1.146.013-.739.6-1.056,1.254-1.075q2.192-.062,4.387,0c.654.019,1.241.336,1.251,1.077.011.814-.613,1.1-1.315,1.144-.728.045-1.462.01-2.193.01" transform="translate(-83.468 -30.196)" fill="#6a4d23" stroke="#6a4d23" stroke-width="1"/>
        <path id="Trazado_873617" data-name="Trazado 873617" d="M154.037,42.27c-.772,0-1.548.052-2.314-.016-.653-.058-1.2-.4-1.174-1.15a1.09,1.09,0,0,1,1.159-1.04c1.542-.049,3.088-.053,4.629.007a1.069,1.069,0,0,1,1.114,1.08,1.084,1.084,0,0,1-1.1,1.093c-.764.076-1.541.018-2.313.018v.008" transform="translate(-113.649 -30.216)" fill="#6a4d23" stroke="#6a4d23" stroke-width="1"/>
      </g>
    </g>
    <g id="Grupo_1100064" data-name="Grupo 1100064" transform="translate(1015.939 1354.484)">
      <g id="Grupo_1100063" data-name="Grupo 1100063" clip-path="url(#clip-path-6)">
        <path id="Trazado_873618" data-name="Trazado 873618" d="M49.958,41.741c1.17,1.015,2.278,1.981,3.392,2.941,1.407,1.212,2.813,2.424,4.231,3.624.583.494.989,1.08.423,1.754-.613.729-1.284.393-1.895-.134-2.72-2.347-5.486-4.642-8.15-7.051-.845-.764-1.318-.613-2.071.057-2.5,2.226-5.066,4.384-7.607,6.568-.214.184-.433.363-.648.547-.562.481-1.179.633-1.715.044-.559-.616-.269-1.193.284-1.67q2.385-2.054,4.775-4.1c.972-.838,1.941-1.68,2.941-2.546-.454-.408-.913-.23-1.321-.23-6.581-.015-13.163,0-19.744-.017-1.935,0-3.025-1-3.033-2.678A2.54,2.54,0,0,1,21.85,36.2c.722-.131.9-.374.9-1.068.015-2.383.04-2.317-2.318-2.408-1.158-.045-1.49.26-1.479,1.449.06,6.783.032,13.566.028,20.35,0,3.637-1.706,5.335-5.337,5.339-1.292,0-2.584.023-3.876-.006a4.54,4.54,0,0,1-4.695-4.772c-.019-4.078-.033-8.156.016-12.234.011-.917-.257-1.152-1.156-1.146-2.571.017-3.921-1.394-3.93-3.984S0,32.553.008,29.969a3.551,3.551,0,0,1,3.913-3.9c5.814-.017,11.629-.035,17.442.019,1.127.01,1.413-.327,1.4-1.428-.06-4.764-.038-9.529-.014-14.293,0-.763-.068-1.21-1-1.4a2.544,2.544,0,0,1-1.9-3.071,2.663,2.663,0,0,1,2.858-2.242c4.966-.018,9.933-.007,14.9-.008.485,0,.97-.019,1.453,0,1.02.048,1.838.127,2.1-1.344A2.911,2.911,0,0,1,44.134.056c1.854-.081,3.715-.067,5.57-.008A3.278,3.278,0,0,1,52.9,2.7c.181.819.507.971,1.269.967,5.653-.032,11.306-.025,16.958-.013a2.71,2.71,0,0,1,2.985,2.651,2.6,2.6,0,0,1-2.129,2.7c-.681.162-.8.468-.8,1.073q.021,12.537.01,25.073c0,.477-.07.869.661,1.015A2.622,2.622,0,0,1,74.1,39.129a2.652,2.652,0,0,1-2.85,2.389c-6.622.021-13.243.008-19.865.018a2.292,2.292,0,0,0-1.431.205m-3.005-5.626c6.981,0,13.962-.016,20.942.019.883,0,1.166-.2,1.161-1.128Q69,22.6,69.052,10.19c0-.86-.275-1.083-1.1-1.082q-21,.031-42.006,0c-.753,0-1.063.173-1.057,1q.052,7.505,0,15.011c0,.755.245,1,.973.95a3.088,3.088,0,0,1,3,1.2,1.009,1.009,0,0,0,1.4.409c2.247-.769,4.516-1.476,6.774-2.211a1.309,1.309,0,0,1,1.269.023,1.036,1.036,0,0,1,.481,1.037c-.082.624-.57.847-1.077,1.011q-3.561,1.159-7.13,2.29A1.929,1.929,0,0,0,29.2,31.007a2.611,2.611,0,0,1-2.683,1.709c-1.327-.1-1.871.308-1.618,1.643a1.1,1.1,0,0,1,0,.362c-.16,1.057.188,1.434,1.35,1.424,6.9-.061,13.8-.03,20.7-.03M16.786,43.724c0-3.793-.007-7.585,0-11.378,0-1.434.361-1.778,1.788-1.782,2.421-.007,4.842-.014,7.263,0,.845.006,1.562-.063,1.542-1.176-.019-1.086-.741-1.191-1.575-1.19q-4.842.008-9.683,0-5.992,0-11.983,0c-.908,0-1.882.165-1.916,1.219-.1,2.982-.116,5.973.008,8.953.052,1.248,1.221,1.156,2.165,1.15,1.1-.007.639-.842.656-1.326.056-1.612.013-3.227.031-4.841a1.047,1.047,0,0,1,1.09-1.185c.735,0,1.062.494,1.1,1.186.022.443.008.888.009,1.331q0,10.168-.006,20.336a2.335,2.335,0,0,0,1.651,2.518c1.56.508,2.025.162,2.026-1.437q0-6.052,0-12.1c0-.565-.053-1.153.507-1.528a.967.967,0,0,1,1.027-.083c.578.279.619.779.619,1.327q-.008,6.173,0,12.346c0,1.63.517,2,2.1,1.469a2.347,2.347,0,0,0,1.6-2.553c-.02-3.752-.008-7.5-.006-11.257M47,5.842q-11.928,0-23.856.008c-.438,0-1.124-.21-1.127.526,0,.689.654.552,1.117.588.12.009.242,0,.363,0H70.48c.242,0,.486.008.726-.013.385-.034.745-.142.718-.627-.024-.434-.374-.468-.707-.479s-.646-.005-.969-.005H47M46.9,39.39c7.792,0,15.583.008,23.375-.017.567,0,1.562.364,1.591-.52.032-.979-.989-.566-1.537-.567q-23.375-.037-46.75,0c-.541,0-1.565-.434-1.527.567.035.9,1.029.516,1.594.517,7.751.027,15.5.018,23.254.018M46.89,3.646c1.044,0,2.088.016,3.131-.011.277-.007.714.2.8-.261a1,1,0,0,0-.429-.825,1.089,1.089,0,0,0-.757-.324c-1.806,0-3.612-.01-5.417.022a1.4,1.4,0,0,0-.739.346.74.74,0,0,0-.332.838c.13.354.483.2.736.206,1,.019,2.007.008,3.01.008" transform="translate(0 0.001)" fill="#6a4d23"/>
        <path id="Trazado_873619" data-name="Trazado 873619" d="M130.839,228.4a12.193,12.193,0,0,1,6.818,6.35,11.632,11.632,0,0,1,1.039,4.073c.108,1.637-.158,1.929-1.8,1.929q-17.374,0-34.748,0-6.659,0-13.318,0c-1.6,0-1.956-.329-1.791-1.94a11.706,11.706,0,0,1,6.9-9.94c.8-.386.884-.6.331-1.319a5.853,5.853,0,0,1,.722-7.979,5.926,5.926,0,0,1,8.636,8.046c-.18.245-.787.537-.4.819.455.332,1.019.934,1.71.476a21.947,21.947,0,0,1,3.174-1.741c.875-.392.016-.694-.173-.922a6.636,6.636,0,0,1-.572-7.883,6.564,6.564,0,0,1,9.35-1.752,6.475,6.475,0,0,1,1.226,9.407c-.7.839-.645,1.114.358,1.47a13.631,13.631,0,0,1,2.113,1.162,4.561,4.561,0,0,0,.5.332c.623.25,1.123-.183,1.521-.482.515-.387-.155-.675-.346-.94a5.921,5.921,0,1,1,9.377.054c-.169.224-.353.437-.63.779m-18.03,10.167c3.428,0,6.856-.014,10.283.012.68.005.991-.147.767-.876-.082-.267-.08-.559-.15-.831a11.183,11.183,0,0,0-21.8.588c-.209,1.008.1,1.134.983,1.123,3.306-.042,6.613-.017,9.92-.017m18.548,0c1.411,0,2.823-.031,4.233.013.714.022.891-.2.781-.906-.861-5.528-7.725-9.377-12.849-7.2-.513.218-.626.382-.25.845a12.7,12.7,0,0,1,2.8,6.452c.09.685.437.824,1.053.808,1.41-.036,2.822-.011,4.233-.012m-36.952,0c1.453,0,2.906-.01,4.358.006.5.005.784-.073.875-.688a13.165,13.165,0,0,1,2.846-6.575c.382-.464.259-.657-.262-.839a11.362,11.362,0,0,0-2.476-.529,9.871,9.871,0,0,0-10.292,7.41c-.182.852-.147,1.325.957,1.239,1.324-.1,2.662-.024,3.993-.025M112.924,226.3a4.41,4.41,0,0,0,4.351-4.416,4.461,4.461,0,0,0-4.444-4.346,4.382,4.382,0,0,0,.093,8.763m-13.977,1.391a3.77,3.77,0,0,0,3.775-3.735,3.83,3.83,0,0,0-3.839-3.707,3.748,3.748,0,0,0-3.674,3.714,3.66,3.66,0,0,0,3.738,3.728m27.76,0a3.768,3.768,0,0,0,3.877-3.629,3.822,3.822,0,0,0-3.732-3.812,3.752,3.752,0,0,0-3.78,3.731,3.659,3.659,0,0,0,3.634,3.711" transform="translate(-65.927 -163.198)" fill="#6a4d23"/>
        <path id="Trazado_873620" data-name="Trazado 873620" d="M23.9,57.465a6.255,6.255,0,1,1,6.314,6.262A6.3,6.3,0,0,1,23.9,57.465m2.175-.055a4.094,4.094,0,0,0,3.983,4.158,4.1,4.1,0,1,0,.116-8.2,4.079,4.079,0,0,0-4.1,4.04" transform="translate(-18.108 -38.775)" fill="#6a4d23"/>
        <path id="Trazado_873621" data-name="Trazado 873621" d="M164.389,90.781a32.006,32.006,0,0,1-6.764-2.248,22.817,22.817,0,0,1-7.165-5.467c-.577-.655-1.283-1.4-.378-2.161.83-.7,1.441.048,1.99.689a21,21,0,0,0,11.709,6.8,1.128,1.128,0,0,0,.961-.021,5.128,5.128,0,0,1-.461-.832,1.015,1.015,0,0,1,.419-1.268.872.872,0,0,1,1.213.095c.961,1.032,1.934,2.061,2.792,3.177.473.615.151,1.229-.487,1.627-.924.576-1.861,1.13-2.778,1.716-.591.378-1.214.644-1.717-.014s-.278-1.283.415-1.734c.088-.057.132-.183.252-.359" transform="translate(-113.394 -61.091)" fill="#6a4d23"/>
        <path id="Trazado_873622" data-name="Trazado 873622" d="M120.846,52.114A4.018,4.018,0,0,1,124.8,48.18a4.087,4.087,0,0,1,3.993,4.051,4.041,4.041,0,0,1-3.989,3.914,3.976,3.976,0,0,1-3.962-4.03m3.918-1.724a1.741,1.741,0,0,0-1.717,1.8,1.785,1.785,0,0,0,1.743,1.788,1.832,1.832,0,0,0,1.8-1.876,1.8,1.8,0,0,0-1.829-1.712" transform="translate(-91.569 -36.508)" fill="#6a4d23"/>
        <path id="Trazado_873623" data-name="Trazado 873623" d="M237.95,113.5a3.926,3.926,0,0,1-3.957-3.893,3.971,3.971,0,0,1,3.994-3.995,4.03,4.03,0,0,1,3.986,3.911,3.986,3.986,0,0,1-4.023,3.977m1.816-3.945a1.9,1.9,0,0,0-1.776-1.8,1.863,1.863,0,0,0-1.81,1.76,1.77,1.77,0,0,0,1.825,1.82,1.8,1.8,0,0,0,1.76-1.776" transform="translate(-177.305 -80.025)" fill="#6a4d23"/>
        <path id="Trazado_873624" data-name="Trazado 873624" d="M173.277,57.406c-.788-.1-1.2-.705-1.643-1.2-.488-.548-.837-.622-1.306-.014a5.746,5.746,0,0,1-.945.932,1.006,1.006,0,0,1-1.425-.016.9.9,0,0,1-.107-1.4c1.551-1.168,1.567-2.186,0-3.357a.908.908,0,0,1,.094-1.4.942.942,0,0,1,1.413-.019c1.137,1.56,2.125,1.506,3.257-.007a.93.93,0,0,1,1.41.042,1.029,1.029,0,0,1,.015,1.514c-.437.555-1.378.937-1.295,1.6.069.548.865,1,1.318,1.508a1.059,1.059,0,0,1,.17,1.237,1.1,1.1,0,0,1-.958.584" transform="translate(-126.967 -38.357)" fill="#6a4d23"/>
        <path id="Trazado_873625" data-name="Trazado 873625" d="M216.254,56.372c-.042.957-1.077,1.518-1.643.855-1.211-1.419-2.181-1.652-3.365-.016a.91.91,0,0,1-1.4-.078.928.928,0,0,1-.026-1.412c1.575-1.142,1.464-2.129-.016-3.257a.93.93,0,0,1,.064-1.413,1.072,1.072,0,0,1,1.436-.062,2.305,2.305,0,0,1,.269.243c1.33,1.183,1.339,1.193,2.668-.014.545-.5,1.141-.727,1.707-.177s.37,1.173-.143,1.7a1.64,1.64,0,0,1-.259.254c-1.187.772-1,1.494.037,2.249a1.3,1.3,0,0,1,.674,1.126" transform="translate(-158.748 -38.435)" fill="#6a4d23"/>
      </g>
    </g>
  </g>
</svg>
